<?xml version="1.0" encoding="UTF-8"?>
<!-- Generated by Pixelmator Pro 2.4.2 -->
<svg width="128" height="128" viewBox="0 0 128 128" xmlns="http://www.w3.org/2000/svg" xmlns:xlink="http://www.w3.org/1999/xlink">
    <g id="Symbols">
        <g id="Regular-S">
            <path id="Path" fill="#60d838" stroke="none" visibility="hidden" d="M 64.169586 125.84919 C 72.638145 125.84919 80.596497 124.242218 88.044624 121.028267 C 95.492752 117.814323 102.061066 113.350571 107.749374 107.636826 C 113.437485 101.923073 117.901237 95.342133 121.140816 87.894005 C 124.380211 80.445877 126 72.51297 126 64.09549 C 126 55.678017 124.380211 47.74511 121.140816 40.296982 C 117.901237 32.848846 113.424667 26.267914 107.710922 20.554161 C 101.997169 14.840416 95.416428 10.376663 87.968292 7.16272 C 80.520164 3.948769 72.561623 2.341797 64.093071 2.341797 C 55.675777 2.341797 47.742878 3.948769 40.294746 7.16272 C 32.846615 10.376663 26.291121 14.840416 20.62826 20.554161 C 14.965591 26.267914 10.514466 32.848846 7.275075 40.296982 C 4.035685 47.74511 2.415894 55.678017 2.415894 64.09549 C 2.415894 72.51297 4.035685 80.445877 7.275075 87.894005 C 10.514466 95.342133 14.978409 101.923073 20.666521 107.636826 C 26.354824 113.350571 32.922947 117.814323 40.371078 121.028267 C 47.81921 124.242218 55.75211 125.84919 64.169586 125.84919 Z"/>
            <path id="path1" fill="#ffffff" stroke="none" visibility="hidden" d="M 57.435799 93.633194 C 56.262325 93.633194 55.178192 93.365372 54.18359 92.829712 C 53.188602 92.294052 52.232071 91.439484 51.313801 90.266205 L 37.080799 72.436447 C 36.009293 71.059044 35.473633 69.579674 35.473633 67.998138 C 35.473633 66.467697 35.996666 65.141365 37.042538 64.018967 C 38.088219 62.896576 39.40173 62.335472 40.983257 62.335472 C 41.952606 62.335472 42.845242 62.539597 43.661549 62.947655 C 44.477852 63.355713 45.293964 64.120941 46.110268 65.243332 L 57.129517 80.012184 L 81.540207 40.450027 C 82.815651 38.358475 84.448067 37.312599 86.437653 37.312599 C 87.917023 37.312599 89.256165 37.771736 90.455086 38.69001 C 91.653999 39.608276 92.253555 40.88372 92.253555 42.516136 C 92.253555 43.281357 92.062248 44.059402 91.679443 44.850075 C 91.296837 45.640739 90.901405 46.393341 90.493347 47.107491 L 63.174988 90.266205 C 61.79739 92.510803 59.884327 93.633194 57.435799 93.633194 Z"/>
        </g>
    </g>
    <g id="Regular-S-copy">
        <path id="path2" fill="#ff634d" stroke="none" d="M 64.169586 125.84919 C 72.638145 125.84919 80.596497 124.242218 88.044624 121.028267 C 95.492752 117.814323 102.061066 113.350571 107.749374 107.636826 C 113.437485 101.923073 117.901237 95.342133 121.140816 87.894005 C 124.380211 80.445877 126 72.51297 126 64.09549 C 126 55.678017 124.380211 47.74511 121.140816 40.296982 C 117.901237 32.848846 113.424667 26.267914 107.710922 20.554161 C 101.997169 14.840416 95.416428 10.376663 87.968292 7.16272 C 80.520164 3.948769 72.561623 2.341797 64.093071 2.341797 C 55.675777 2.341797 47.742878 3.948769 40.294746 7.16272 C 32.846615 10.376663 26.291121 14.840416 20.62826 20.554161 C 14.965591 26.267914 10.514466 32.848846 7.275075 40.296982 C 4.035685 47.74511 2.415894 55.678017 2.415894 64.09549 C 2.415894 72.51297 4.035685 80.445877 7.275075 87.894005 C 10.514466 95.342133 14.978409 101.923073 20.666521 107.636826 C 26.354824 113.350571 32.922947 117.814323 40.371078 121.028267 C 47.81921 124.242218 55.75211 125.84919 64.169586 125.84919 Z"/>
        <path id="path3" fill="#ffffff" stroke="none" d="M 45.49828 92.791451 C 44.018906 92.791451 42.781731 92.319496 41.786743 91.375778 C 40.792141 90.432068 40.294746 89.245972 40.294746 87.817482 C 40.294746 86.542038 40.702801 85.317688 41.518917 84.144402 L 57.129517 63.024178 L 42.590233 43.434402 C 41.569996 42.056999 41.05978 40.679596 41.05978 39.302185 C 41.05978 37.873703 41.608257 36.636719 42.705013 35.590843 C 43.801968 34.544975 45.115665 34.022133 46.645927 34.022133 C 47.81921 34.022133 48.801376 34.251701 49.592236 34.710838 C 50.382904 35.169968 51.18639 35.986275 52.002697 37.159554 L 64.78196 55.371925 L 65.088051 55.371925 L 77.484512 37.236076 C 78.249931 36.062798 79.015152 35.233673 79.78038 34.7491 C 80.545418 34.264519 81.489128 34.022133 82.611526 34.022133 C 84.142166 34.022133 85.417412 34.506714 86.437653 35.476059 C 87.458076 36.445412 87.968292 37.644135 87.968292 39.072617 C 87.968292 40.348061 87.509155 41.597862 86.590889 42.822227 L 71.133141 63.406792 L 86.514175 83.83831 C 87.381363 85.011597 87.815056 86.261589 87.815056 87.587921 C 87.815056 89.118362 87.292213 90.368172 86.246346 91.337524 C 85.200661 92.30687 83.861519 92.791451 82.229103 92.791451 C 81.106705 92.791451 80.175621 92.549065 79.435837 92.064484 C 78.69606 91.57991 77.867126 90.699898 76.948853 89.424454 L 64.016739 71.365135 L 63.786976 71.365135 L 50.854668 89.424454 C 49.936398 90.699898 49.107464 91.57991 48.367683 92.064484 C 47.627903 92.549065 46.671562 92.791451 45.49828 92.791451 Z"/>
    </g>
    <g id="g1">
        <path id="path4" fill="#ffe000" stroke="none" d="M 64.169586 125.898018 C 72.638145 125.898018 80.596497 124.291046 88.044624 121.077095 C 95.492752 117.863152 102.061066 113.399399 107.749374 107.685654 C 113.437485 101.971901 117.901237 95.390961 121.140816 87.942833 C 124.380211 80.494705 126 72.561798 126 64.144318 C 126 55.726845 124.380211 47.793938 121.140816 40.34581 C 117.901237 32.897675 113.424667 26.316742 107.710922 20.602989 C 101.997169 14.889244 95.416428 10.425491 87.968292 7.211548 C 80.520164 3.997597 72.561623 2.390625 64.093071 2.390625 C 55.675777 2.390625 47.742878 3.997597 40.294746 7.211548 C 32.846615 10.425491 26.291121 14.889244 20.62826 20.602989 C 14.965591 26.316742 10.514466 32.897675 7.275075 40.34581 C 4.035685 47.793938 2.415894 55.726845 2.415894 64.144318 C 2.415894 72.561798 4.035685 80.494705 7.275075 87.942833 C 10.514466 95.390961 14.978409 101.971901 20.666521 107.685654 C 26.354824 113.399399 32.922947 117.863152 40.371078 121.077095 C 47.81921 124.291046 55.75211 125.898018 64.169586 125.898018 Z"/>
        <path id="path5" fill="#000000" stroke="none" d="M 81.540207 37.514473 C 84.754158 37.514473 87.8405 38.228622 90.799438 39.657104 C 93.758369 41.085594 95.977715 43.100624 97.457092 45.702385 C 97.661018 45.957397 97.775803 46.238045 97.801247 46.544136 C 97.826691 46.850227 97.839508 47.28392 97.839508 47.845016 L 97.839508 88.708054 C 97.839508 90.23851 96.997765 91.003738 95.31427 91.003738 C 94.906212 91.003738 94.510971 90.940033 94.128166 90.812424 C 93.745552 90.68483 93.401207 90.493523 93.095306 90.23851 C 89.422028 87.177612 85.11132 85.647156 80.162804 85.647156 C 78.122139 85.647156 76.107109 85.978691 74.117523 86.641953 C 72.127937 87.305206 70.291397 88.325447 68.608086 89.70285 C 68.301811 90.008942 67.99572 90.161987 67.689629 90.161987 C 66.822433 90.161987 66.388741 89.753937 66.388741 88.937622 L 66.388741 45.931953 C 66.388741 45.37085 66.592865 44.784119 67.001114 44.171936 C 68.378326 42.131271 70.36792 40.511673 72.969872 39.312752 C 75.571449 38.113838 78.42823 37.514473 81.540207 37.514473 Z M 46.952015 37.514473 C 50.063995 37.514473 52.920776 38.113838 55.522732 39.312752 C 58.12431 40.511673 60.113895 42.131271 61.491302 44.171936 C 61.899548 44.784119 62.103672 45.37085 62.103672 45.931953 L 62.103672 88.937622 C 62.103672 89.753937 61.669979 90.161987 60.802597 90.161987 C 60.496506 90.161987 60.190418 90.008942 59.884518 89.70285 C 56.568413 86.999115 52.716652 85.647156 48.329422 85.647156 C 43.380901 85.647156 39.070194 87.177612 35.397305 90.23851 C 35.040134 90.493523 34.683155 90.68483 34.325989 90.812424 C 33.968819 90.940033 33.586205 91.003738 33.177959 91.003738 C 31.494461 91.003738 30.652714 90.23851 30.652714 88.708054 L 30.652714 47.845016 C 30.652714 47.28392 30.665531 46.863045 30.690975 46.582397 C 30.716419 46.30175 30.831394 46.008476 31.035519 45.702385 C 32.514889 43.100624 34.734043 41.085594 37.692787 39.657104 C 40.651722 38.228622 43.738068 37.514473 46.952015 37.514473 Z"/>
    </g>
</svg>
