<?xml version="1.0" encoding="UTF-8"?>
<!-- Generated by Pixelmator Pro 2.4.2 -->
<svg width="128" height="128" viewBox="0 0 128 128" xmlns="http://www.w3.org/2000/svg" xmlns:xlink="http://www.w3.org/1999/xlink">
    <g id="Symbols">
        <g id="Regular-S">
            <path id="Path" fill="#60d838" stroke="none" d="M 64.169586 125.84919 C 72.638145 125.84919 80.596497 124.242218 88.044624 121.028267 C 95.492752 117.814323 102.061066 113.350571 107.749374 107.636826 C 113.437485 101.923073 117.901237 95.342133 121.140816 87.894005 C 124.380211 80.445877 126 72.51297 126 64.09549 C 126 55.678017 124.380211 47.74511 121.140816 40.296982 C 117.901237 32.848846 113.424667 26.267914 107.710922 20.554161 C 101.997169 14.840416 95.416428 10.376663 87.968292 7.16272 C 80.520164 3.948769 72.561623 2.341797 64.093071 2.341797 C 55.675777 2.341797 47.742878 3.948769 40.294746 7.16272 C 32.846615 10.376663 26.291121 14.840416 20.62826 20.554161 C 14.965591 26.267914 10.514466 32.848846 7.275075 40.296982 C 4.035685 47.74511 2.415894 55.678017 2.415894 64.09549 C 2.415894 72.51297 4.035685 80.445877 7.275075 87.894005 C 10.514466 95.342133 14.978409 101.923073 20.666521 107.636826 C 26.354824 113.350571 32.922947 117.814323 40.371078 121.028267 C 47.81921 124.242218 55.75211 125.84919 64.169586 125.84919 Z"/>
            <path id="path1" fill="#ffffff" stroke="none" d="M 57.435799 93.633194 C 56.262325 93.633194 55.178192 93.365372 54.18359 92.829712 C 53.188602 92.294052 52.232071 91.439484 51.313801 90.266205 L 37.080799 72.436447 C 36.009293 71.059044 35.473633 69.579674 35.473633 67.998138 C 35.473633 66.467697 35.996666 65.141365 37.042538 64.018967 C 38.088219 62.896576 39.40173 62.335472 40.983257 62.335472 C 41.952606 62.335472 42.845242 62.539597 43.661549 62.947655 C 44.477852 63.355713 45.293964 64.120941 46.110268 65.243332 L 57.129517 80.012184 L 81.540207 40.450027 C 82.815651 38.358475 84.448067 37.312599 86.437653 37.312599 C 87.917023 37.312599 89.256165 37.771736 90.455086 38.69001 C 91.653999 39.608276 92.253555 40.88372 92.253555 42.516136 C 92.253555 43.281357 92.062248 44.059402 91.679443 44.850075 C 91.296837 45.640739 90.901405 46.393341 90.493347 47.107491 L 63.174988 90.266205 C 61.79739 92.510803 59.884327 93.633194 57.435799 93.633194 Z"/>
        </g>
    </g>
</svg>
