<?xml version="1.0" encoding="UTF-8"?>
<!-- Generated by Pixelmator Pro 2.4.2 -->
<svg width="128" height="128" viewBox="0 0 128 128" xmlns="http://www.w3.org/2000/svg" xmlns:xlink="http://www.w3.org/1999/xlink">
    <g id="Check">
        <g id="Regular-S">
            <path id="Path" fill="#60d838" stroke="none" visibility="hidden" d="M 64.169586 125.84919 C 72.638145 125.84919 80.596497 124.242218 88.044624 121.028267 C 95.492752 117.814323 102.061066 113.350571 107.749374 107.636826 C 113.437485 101.923073 117.901237 95.342133 121.140816 87.894005 C 124.380211 80.445877 126 72.51297 126 64.09549 C 126 55.678017 124.380211 47.74511 121.140816 40.296982 C 117.901237 32.848846 113.424667 26.267914 107.710922 20.554161 C 101.997169 14.840416 95.416428 10.376663 87.968292 7.16272 C 80.520164 3.948769 72.561623 2.341797 64.093071 2.341797 C 55.675777 2.341797 47.742878 3.948769 40.294746 7.16272 C 32.846615 10.376663 26.291121 14.840416 20.62826 20.554161 C 14.965591 26.267914 10.514466 32.848846 7.275075 40.296982 C 4.035685 47.74511 2.415894 55.678017 2.415894 64.09549 C 2.415894 72.51297 4.035685 80.445877 7.275075 87.894005 C 10.514466 95.342133 14.978409 101.923073 20.666521 107.636826 C 26.354824 113.350571 32.922947 117.814323 40.371078 121.028267 C 47.81921 124.242218 55.75211 125.84919 64.169586 125.84919 Z"/>
            <path id="path1" fill="#ffffff" stroke="none" visibility="hidden" d="M 57.435799 93.633194 C 56.262325 93.633194 55.178192 93.365372 54.18359 92.829712 C 53.188602 92.294052 52.232071 91.439484 51.313801 90.266205 L 37.080799 72.436447 C 36.009293 71.059044 35.473633 69.579674 35.473633 67.998138 C 35.473633 66.467697 35.996666 65.141365 37.042538 64.018967 C 38.088219 62.896576 39.40173 62.335472 40.983257 62.335472 C 41.952606 62.335472 42.845242 62.539597 43.661549 62.947655 C 44.477852 63.355713 45.293964 64.120941 46.110268 65.243332 L 57.129517 80.012184 L 81.540207 40.450027 C 82.815651 38.358475 84.448067 37.312599 86.437653 37.312599 C 87.917023 37.312599 89.256165 37.771736 90.455086 38.69001 C 91.653999 39.608276 92.253555 40.88372 92.253555 42.516136 C 92.253555 43.281357 92.062248 44.059402 91.679443 44.850075 C 91.296837 45.640739 90.901405 46.393341 90.493347 47.107491 L 63.174988 90.266205 C 61.79739 92.510803 59.884327 93.633194 57.435799 93.633194 Z"/>
        </g>
    </g>
    <g id="X">
        <path id="path2" fill="#ff634d" stroke="none" visibility="hidden" d="M 64.169586 125.84919 C 72.638145 125.84919 80.596497 124.242218 88.044624 121.028267 C 95.492752 117.814323 102.061066 113.350571 107.749374 107.636826 C 113.437485 101.923073 117.901237 95.342133 121.140816 87.894005 C 124.380211 80.445877 126 72.51297 126 64.09549 C 126 55.678017 124.380211 47.74511 121.140816 40.296982 C 117.901237 32.848846 113.424667 26.267914 107.710922 20.554161 C 101.997169 14.840416 95.416428 10.376663 87.968292 7.16272 C 80.520164 3.948769 72.561623 2.341797 64.093071 2.341797 C 55.675777 2.341797 47.742878 3.948769 40.294746 7.16272 C 32.846615 10.376663 26.291121 14.840416 20.62826 20.554161 C 14.965591 26.267914 10.514466 32.848846 7.275075 40.296982 C 4.035685 47.74511 2.415894 55.678017 2.415894 64.09549 C 2.415894 72.51297 4.035685 80.445877 7.275075 87.894005 C 10.514466 95.342133 14.978409 101.923073 20.666521 107.636826 C 26.354824 113.350571 32.922947 117.814323 40.371078 121.028267 C 47.81921 124.242218 55.75211 125.84919 64.169586 125.84919 Z"/>
        <path id="path3" fill="#ffffff" stroke="none" visibility="hidden" d="M 45.49828 92.791451 C 44.018906 92.791451 42.781731 92.319496 41.786743 91.375778 C 40.792141 90.432068 40.294746 89.245972 40.294746 87.817482 C 40.294746 86.542038 40.702801 85.317688 41.518917 84.144402 L 57.129517 63.024178 L 42.590233 43.434402 C 41.569996 42.056999 41.05978 40.679596 41.05978 39.302185 C 41.05978 37.873703 41.608257 36.636719 42.705013 35.590843 C 43.801968 34.544975 45.115665 34.022133 46.645927 34.022133 C 47.81921 34.022133 48.801376 34.251701 49.592236 34.710838 C 50.382904 35.169968 51.18639 35.986275 52.002697 37.159554 L 64.78196 55.371925 L 65.088051 55.371925 L 77.484512 37.236076 C 78.249931 36.062798 79.015152 35.233673 79.78038 34.7491 C 80.545418 34.264519 81.489128 34.022133 82.611526 34.022133 C 84.142166 34.022133 85.417412 34.506714 86.437653 35.476059 C 87.458076 36.445412 87.968292 37.644135 87.968292 39.072617 C 87.968292 40.348061 87.509155 41.597862 86.590889 42.822227 L 71.133141 63.406792 L 86.514175 83.83831 C 87.381363 85.011597 87.815056 86.261589 87.815056 87.587921 C 87.815056 89.118362 87.292213 90.368172 86.246346 91.337524 C 85.200661 92.30687 83.861519 92.791451 82.229103 92.791451 C 81.106705 92.791451 80.175621 92.549065 79.435837 92.064484 C 78.69606 91.57991 77.867126 90.699898 76.948853 89.424454 L 64.016739 71.365135 L 63.786976 71.365135 L 50.854668 89.424454 C 49.936398 90.699898 49.107464 91.57991 48.367683 92.064484 C 47.627903 92.549065 46.671562 92.791451 45.49828 92.791451 Z"/>
    </g>
    <g id="Boek-Geel">
        <path id="path4" fill="#ffe000" stroke="none" visibility="hidden" d="M 64.169586 125.898018 C 72.638145 125.898018 80.596497 124.291046 88.044624 121.077095 C 95.492752 117.863152 102.061066 113.399399 107.749374 107.685654 C 113.437485 101.971901 117.901237 95.390961 121.140816 87.942833 C 124.380211 80.494705 126 72.561798 126 64.144318 C 126 55.726845 124.380211 47.793938 121.140816 40.34581 C 117.901237 32.897675 113.424667 26.316742 107.710922 20.602989 C 101.997169 14.889244 95.416428 10.425491 87.968292 7.211548 C 80.520164 3.997597 72.561623 2.390625 64.093071 2.390625 C 55.675777 2.390625 47.742878 3.997597 40.294746 7.211548 C 32.846615 10.425491 26.291121 14.889244 20.62826 20.602989 C 14.965591 26.316742 10.514466 32.897675 7.275075 40.34581 C 4.035685 47.793938 2.415894 55.726845 2.415894 64.144318 C 2.415894 72.561798 4.035685 80.494705 7.275075 87.942833 C 10.514466 95.390961 14.978409 101.971901 20.666521 107.685654 C 26.354824 113.399399 32.922947 117.863152 40.371078 121.077095 C 47.81921 124.291046 55.75211 125.898018 64.169586 125.898018 Z"/>
        <path id="path5" fill="#000000" stroke="none" visibility="hidden" d="M 81.540207 37.514473 C 84.754158 37.514473 87.8405 38.228622 90.799438 39.657104 C 93.758369 41.085594 95.977715 43.100624 97.457092 45.702385 C 97.661018 45.957397 97.775803 46.238045 97.801247 46.544136 C 97.826691 46.850227 97.839508 47.28392 97.839508 47.845016 L 97.839508 88.708054 C 97.839508 90.23851 96.997765 91.003738 95.31427 91.003738 C 94.906212 91.003738 94.510971 90.940033 94.128166 90.812424 C 93.745552 90.68483 93.401207 90.493523 93.095306 90.23851 C 89.422028 87.177612 85.11132 85.647156 80.162804 85.647156 C 78.122139 85.647156 76.107109 85.978691 74.117523 86.641953 C 72.127937 87.305206 70.291397 88.325447 68.608086 89.70285 C 68.301811 90.008942 67.99572 90.161987 67.689629 90.161987 C 66.822433 90.161987 66.388741 89.753937 66.388741 88.937622 L 66.388741 45.931953 C 66.388741 45.37085 66.592865 44.784119 67.001114 44.171936 C 68.378326 42.131271 70.36792 40.511673 72.969872 39.312752 C 75.571449 38.113838 78.42823 37.514473 81.540207 37.514473 Z M 46.952015 37.514473 C 50.063995 37.514473 52.920776 38.113838 55.522732 39.312752 C 58.12431 40.511673 60.113895 42.131271 61.491302 44.171936 C 61.899548 44.784119 62.103672 45.37085 62.103672 45.931953 L 62.103672 88.937622 C 62.103672 89.753937 61.669979 90.161987 60.802597 90.161987 C 60.496506 90.161987 60.190418 90.008942 59.884518 89.70285 C 56.568413 86.999115 52.716652 85.647156 48.329422 85.647156 C 43.380901 85.647156 39.070194 87.177612 35.397305 90.23851 C 35.040134 90.493523 34.683155 90.68483 34.325989 90.812424 C 33.968819 90.940033 33.586205 91.003738 33.177959 91.003738 C 31.494461 91.003738 30.652714 90.23851 30.652714 88.708054 L 30.652714 47.845016 C 30.652714 47.28392 30.665531 46.863045 30.690975 46.582397 C 30.716419 46.30175 30.831394 46.008476 31.035519 45.702385 C 32.514889 43.100624 34.734043 41.085594 37.692787 39.657104 C 40.651722 38.228622 43.738068 37.514473 46.952015 37.514473 Z"/>
    </g>
    <g id="Boek-wit">
        <path id="path6" fill="#ffffff" stroke="none" visibility="hidden" d="M 64.169586 125.898018 C 72.638145 125.898018 80.596497 124.291046 88.044624 121.077095 C 95.492752 117.863152 102.061066 113.399399 107.749374 107.685654 C 113.437485 101.971901 117.901237 95.390961 121.140816 87.942833 C 124.380211 80.494705 126 72.561798 126 64.144318 C 126 55.726845 124.380211 47.793938 121.140816 40.34581 C 117.901237 32.897675 113.424667 26.316742 107.710922 20.602989 C 101.997169 14.889244 95.416428 10.425491 87.968292 7.211548 C 80.520164 3.997597 72.561623 2.390625 64.093071 2.390625 C 55.675777 2.390625 47.742878 3.997597 40.294746 7.211548 C 32.846615 10.425491 26.291121 14.889244 20.62826 20.602989 C 14.965591 26.316742 10.514466 32.897675 7.275075 40.34581 C 4.035685 47.793938 2.415894 55.726845 2.415894 64.144318 C 2.415894 72.561798 4.035685 80.494705 7.275075 87.942833 C 10.514466 95.390961 14.978409 101.971901 20.666521 107.685654 C 26.354824 113.399399 32.922947 117.863152 40.371078 121.077095 C 47.81921 124.291046 55.75211 125.898018 64.169586 125.898018 Z"/>
        <path id="path7" fill="#000000" stroke="none" visibility="hidden" d="M 81.540207 37.514473 C 84.754158 37.514473 87.8405 38.228622 90.799438 39.657104 C 93.758369 41.085594 95.977715 43.100624 97.457092 45.702385 C 97.661018 45.957397 97.775803 46.238045 97.801247 46.544136 C 97.826691 46.850227 97.839508 47.28392 97.839508 47.845016 L 97.839508 88.708054 C 97.839508 90.23851 96.997765 91.003738 95.31427 91.003738 C 94.906212 91.003738 94.510971 90.940033 94.128166 90.812424 C 93.745552 90.68483 93.401207 90.493523 93.095306 90.23851 C 89.422028 87.177612 85.11132 85.647156 80.162804 85.647156 C 78.122139 85.647156 76.107109 85.978691 74.117523 86.641953 C 72.127937 87.305206 70.291397 88.325447 68.608086 89.70285 C 68.301811 90.008942 67.99572 90.161987 67.689629 90.161987 C 66.822433 90.161987 66.388741 89.753937 66.388741 88.937622 L 66.388741 45.931953 C 66.388741 45.37085 66.592865 44.784119 67.001114 44.171936 C 68.378326 42.131271 70.36792 40.511673 72.969872 39.312752 C 75.571449 38.113838 78.42823 37.514473 81.540207 37.514473 Z M 46.952015 37.514473 C 50.063995 37.514473 52.920776 38.113838 55.522732 39.312752 C 58.12431 40.511673 60.113895 42.131271 61.491302 44.171936 C 61.899548 44.784119 62.103672 45.37085 62.103672 45.931953 L 62.103672 88.937622 C 62.103672 89.753937 61.669979 90.161987 60.802597 90.161987 C 60.496506 90.161987 60.190418 90.008942 59.884518 89.70285 C 56.568413 86.999115 52.716652 85.647156 48.329422 85.647156 C 43.380901 85.647156 39.070194 87.177612 35.397305 90.23851 C 35.040134 90.493523 34.683155 90.68483 34.325989 90.812424 C 33.968819 90.940033 33.586205 91.003738 33.177959 91.003738 C 31.494461 91.003738 30.652714 90.23851 30.652714 88.708054 L 30.652714 47.845016 C 30.652714 47.28392 30.665531 46.863045 30.690975 46.582397 C 30.716419 46.30175 30.831394 46.008476 31.035519 45.702385 C 32.514889 43.100624 34.734043 41.085594 37.692787 39.657104 C 40.651722 38.228622 43.738068 37.514473 46.952015 37.514473 Z"/>
    </g>
    <g id="Plus-wit">
        <path id="path8" fill="#ffffff" stroke="none" visibility="hidden" d="M 64.169586 125.84919 C 72.638145 125.84919 80.596497 124.242218 88.044624 121.028267 C 95.492752 117.814323 102.061066 113.350571 107.749374 107.636826 C 113.437485 101.923073 117.901237 95.342133 121.140816 87.894005 C 124.380211 80.445877 126 72.51297 126 64.09549 C 126 55.678017 124.380211 47.74511 121.140816 40.296982 C 117.901237 32.848846 113.424667 26.267914 107.710922 20.554161 C 101.997169 14.840416 95.416428 10.376663 87.968292 7.16272 C 80.520164 3.948769 72.561623 2.341797 64.093071 2.341797 C 55.675777 2.341797 47.742878 3.948769 40.294746 7.16272 C 32.846615 10.376663 26.291121 14.840416 20.62826 20.554161 C 14.965591 26.267914 10.514466 32.848846 7.275075 40.296982 C 4.035685 47.74511 2.415894 55.678017 2.415894 64.09549 C 2.415894 72.51297 4.035685 80.445877 7.275075 87.894005 C 10.514466 95.342133 14.978409 101.923073 20.666521 107.636826 C 26.354824 113.350571 32.922947 117.814323 40.371078 121.028267 C 47.81921 124.242218 55.75211 125.84919 64.169586 125.84919 Z"/>
        <path id="path9" fill="#ffe000" stroke="none" visibility="hidden" d="M 34.249275 64.172012 C 34.249275 62.386551 34.810566 60.932625 35.932961 59.810234 C 37.055355 58.687836 38.534729 58.126732 40.371078 58.126732 L 58.200832 58.126732 L 58.200832 40.220459 C 58.200832 38.434998 58.749306 36.981064 59.846066 35.858673 C 60.942825 34.736275 62.358494 34.175179 64.093071 34.175179 C 65.929611 34.175179 67.396355 34.736275 68.493111 35.858673 C 69.589874 36.981064 70.138351 38.434998 70.138351 40.220459 L 70.138351 58.126732 L 88.121147 58.126732 C 89.855721 58.126732 91.296837 58.687836 92.444672 59.810234 C 93.592697 60.932625 94.166618 62.386551 94.166618 64.172012 C 94.166618 65.906586 93.592697 67.322258 92.444672 68.419022 C 91.296837 69.515778 89.855721 70.064255 88.121147 70.064255 L 70.138351 70.064255 L 70.138351 87.970528 C 70.138351 89.755989 69.589874 91.209915 68.493111 92.332314 C 67.396355 93.454712 65.929611 94.015808 64.093071 94.015808 C 62.358494 94.015808 60.942825 93.454712 59.846066 92.332314 C 58.749306 91.209915 58.200832 89.755989 58.200832 87.970528 L 58.200832 70.064255 L 40.371078 70.064255 C 38.534729 70.064255 37.055355 69.515778 35.932961 68.419022 C 34.810566 67.322258 34.249275 65.906586 34.249275 64.172012 Z"/>
    </g>
    <g id="Plus-geel">
        <path id="path10" fill="#ffe000" stroke="none" visibility="hidden" d="M 64.169586 125.84919 C 72.638145 125.84919 80.596497 124.242218 88.044624 121.028267 C 95.492752 117.814323 102.061066 113.350571 107.749374 107.636826 C 113.437485 101.923073 117.901237 95.342133 121.140816 87.894005 C 124.380211 80.445877 126 72.51297 126 64.09549 C 126 55.678017 124.380211 47.74511 121.140816 40.296982 C 117.901237 32.848846 113.424667 26.267914 107.710922 20.554161 C 101.997169 14.840416 95.416428 10.376663 87.968292 7.16272 C 80.520164 3.948769 72.561623 2.341797 64.093071 2.341797 C 55.675777 2.341797 47.742878 3.948769 40.294746 7.16272 C 32.846615 10.376663 26.291121 14.840416 20.62826 20.554161 C 14.965591 26.267914 10.514466 32.848846 7.275075 40.296982 C 4.035685 47.74511 2.415894 55.678017 2.415894 64.09549 C 2.415894 72.51297 4.035685 80.445877 7.275075 87.894005 C 10.514466 95.342133 14.978409 101.923073 20.666521 107.636826 C 26.354824 113.350571 32.922947 117.814323 40.371078 121.028267 C 47.81921 124.242218 55.75211 125.84919 64.169586 125.84919 Z"/>
        <path id="path11" fill="#000000" stroke="none" visibility="hidden" d="M 34.249275 64.172012 C 34.249275 62.386551 34.810566 60.932625 35.932961 59.810234 C 37.055355 58.687836 38.534729 58.126732 40.371078 58.126732 L 58.200832 58.126732 L 58.200832 40.220459 C 58.200832 38.434998 58.749306 36.981064 59.846066 35.858673 C 60.942825 34.736275 62.358494 34.175179 64.093071 34.175179 C 65.929611 34.175179 67.396355 34.736275 68.493111 35.858673 C 69.589874 36.981064 70.138351 38.434998 70.138351 40.220459 L 70.138351 58.126732 L 88.121147 58.126732 C 89.855721 58.126732 91.296837 58.687836 92.444672 59.810234 C 93.592697 60.932625 94.166618 62.386551 94.166618 64.172012 C 94.166618 65.906586 93.592697 67.322258 92.444672 68.419022 C 91.296837 69.515778 89.855721 70.064255 88.121147 70.064255 L 70.138351 70.064255 L 70.138351 87.970528 C 70.138351 89.755989 69.589874 91.209915 68.493111 92.332314 C 67.396355 93.454712 65.929611 94.015808 64.093071 94.015808 C 62.358494 94.015808 60.942825 93.454712 59.846066 92.332314 C 58.749306 91.209915 58.200832 89.755989 58.200832 87.970528 L 58.200832 70.064255 L 40.371078 70.064255 C 38.534729 70.064255 37.055355 69.515778 35.932961 68.419022 C 34.810566 67.322258 34.249275 65.906586 34.249275 64.172012 Z"/>
    </g>
    <g id="Pen-wit">
        <path id="path12" fill="#ffffff" stroke="none" visibility="hidden" d="M 64.220581 126 C 72.696136 126 80.661049 124.391701 88.115334 121.175102 C 95.569611 117.958496 102.143349 113.491058 107.836349 107.772598 C 113.52916 102.054131 117.996597 95.467758 121.238853 88.013474 C 124.480919 80.559196 126.102043 72.619743 126.102043 64.195313 C 126.102043 55.770882 124.480919 47.831429 121.238853 40.377151 C 117.996597 32.922867 113.516327 26.336494 107.797867 20.618027 C 102.079399 14.899567 95.493217 10.432129 88.038933 7.215523 C 80.584656 3.998924 72.619545 2.390625 64.143997 2.390625 C 55.719757 2.390625 47.780304 3.998924 40.326023 7.215523 C 32.871742 10.432129 26.310835 14.899567 20.643299 20.618027 C 14.975954 26.336494 10.521153 32.922867 7.279088 40.377151 C 4.037022 47.831429 2.415894 55.770882 2.415894 64.195313 C 2.415894 72.619743 4.037022 80.559196 7.279088 88.013474 C 10.521153 95.467758 14.988782 102.054131 20.681591 107.772598 C 26.374592 113.491058 32.948135 117.958496 40.402416 121.175102 C 47.856697 124.391701 55.79615 126 64.220581 126 Z"/>
        <path id="path13" fill="#ffe000" stroke="none" visibility="hidden" d="M 44.920975 91.306664 L 36.037029 94.370087 C 35.271366 94.625313 34.569263 94.459503 33.930923 93.872284 C 33.292774 93.285065 33.152428 92.557495 33.509892 91.68959 L 36.956059 83.188576 L 76.397713 43.823509 L 84.5158 51.941597 Z M 88.498451 47.882553 L 80.456757 39.764465 L 85.43483 34.862976 C 86.507027 33.790779 87.630348 33.216385 88.804794 33.139801 C 89.979042 33.06321 91.076706 33.535553 92.097977 34.556633 L 93.782677 36.241516 C 94.752823 37.262596 95.212341 38.360458 95.161217 39.534706 C 95.110291 40.708954 94.548721 41.857742 93.476524 42.981064 Z"/>
    </g>
    <g id="Pen-geel">
        <path id="path14" fill="#ffe000" stroke="none" visibility="hidden" d="M 64.220581 126 C 72.696136 126 80.661049 124.391701 88.115334 121.175102 C 95.569611 117.958496 102.143349 113.491058 107.836349 107.772598 C 113.52916 102.054131 117.996597 95.467758 121.238853 88.013474 C 124.480919 80.559196 126.102043 72.619743 126.102043 64.195313 C 126.102043 55.770882 124.480919 47.831429 121.238853 40.377151 C 117.996597 32.922867 113.516327 26.336494 107.797867 20.618027 C 102.079399 14.899567 95.493217 10.432129 88.038933 7.215523 C 80.584656 3.998924 72.619545 2.390625 64.143997 2.390625 C 55.719757 2.390625 47.780304 3.998924 40.326023 7.215523 C 32.871742 10.432129 26.310835 14.899567 20.643299 20.618027 C 14.975954 26.336494 10.521153 32.922867 7.279088 40.377151 C 4.037022 47.831429 2.415894 55.770882 2.415894 64.195313 C 2.415894 72.619743 4.037022 80.559196 7.279088 88.013474 C 10.521153 95.467758 14.988782 102.054131 20.681591 107.772598 C 26.374592 113.491058 32.948135 117.958496 40.402416 121.175102 C 47.856697 124.391701 55.79615 126 64.220581 126 Z"/>
        <path id="path15" fill="#000000" stroke="none" visibility="hidden" d="M 44.920975 91.306664 L 36.037029 94.370087 C 35.271366 94.625313 34.569263 94.459503 33.930923 93.872284 C 33.292774 93.285065 33.152428 92.557495 33.509892 91.68959 L 36.956059 83.188576 L 76.397713 43.823509 L 84.5158 51.941597 Z M 88.498451 47.882553 L 80.456757 39.764465 L 85.43483 34.862976 C 86.507027 33.790779 87.630348 33.216385 88.804794 33.139801 C 89.979042 33.06321 91.076706 33.535553 92.097977 34.556633 L 93.782677 36.241516 C 94.752823 37.262596 95.212341 38.360458 95.161217 39.534706 C 95.110291 40.708954 94.548721 41.857742 93.476524 42.981064 Z"/>
    </g>
    <g id="Bin-wit">
        <path id="path16" fill="#ffffff" stroke="none" visibility="hidden" d="M 64.220581 126 C 72.696136 126 80.661049 124.391701 88.115334 121.175102 C 95.569611 117.958496 102.143349 113.491058 107.836349 107.772598 C 113.52916 102.054131 117.996597 95.467758 121.238853 88.013474 C 124.480919 80.559196 126.102043 72.619743 126.102043 64.195313 C 126.102043 55.770882 124.480919 47.831429 121.238853 40.377151 C 117.996597 32.922867 113.516327 26.336494 107.797867 20.618027 C 102.079399 14.899567 95.493217 10.432129 88.038933 7.215523 C 80.584656 3.998924 72.619545 2.390625 64.143997 2.390625 C 55.719757 2.390625 47.780304 3.998924 40.326023 7.215523 C 32.871742 10.432129 26.310835 14.899567 20.643299 20.618027 C 14.975954 26.336494 10.521153 32.922867 7.279088 40.377151 C 4.037022 47.831429 2.415894 55.770882 2.415894 64.195313 C 2.415894 72.619743 4.037022 80.559196 7.279088 88.013474 C 10.521153 95.467758 14.988782 102.054131 20.681591 107.772598 C 26.374592 113.491058 32.948135 117.958496 40.402416 121.175102 C 47.856697 124.391701 55.79615 126 64.220581 126 Z"/>
        <path id="path17" fill="#000000" stroke="none" visibility="hidden" d="M 46.835621 99.271576 C 43.567898 99.271576 41.181103 98.429138 39.674854 96.744247 C 38.168602 95.059364 37.160351 92.532036 36.649715 89.162262 L 32.284328 58.757729 L 96.233421 58.757729 L 91.868034 89.162262 C 91.357399 92.532036 90.349144 95.059364 88.843086 96.744247 C 87.336838 98.429138 84.949852 99.271576 81.682129 99.271576 Z M 54.877121 90.617386 C 55.642979 90.617386 56.332249 90.336517 56.945129 89.774948 L 64.220581 82.499298 L 71.64959 89.774948 C 71.904808 89.97924 72.185501 90.1707 72.492035 90.349342 C 72.79818 90.527977 73.181114 90.617386 73.640625 90.617386 C 74.406487 90.617386 75.07029 90.323875 75.631859 89.736656 C 76.19342 89.149429 76.474297 88.472992 76.474297 87.707138 C 76.474297 86.992401 76.19342 86.32859 75.631859 85.715904 L 68.3564 78.363678 L 75.631859 71.011444 C 76.244736 70.398758 76.551079 69.734955 76.551079 69.020218 C 76.551079 68.203232 76.270195 67.513962 75.708633 66.9524 C 75.146873 66.390839 74.457603 66.109955 73.640625 66.109955 C 72.925888 66.109955 72.262085 66.390839 71.64959 66.9524 L 64.220581 74.304626 L 56.868351 66.9524 C 56.306786 66.441765 55.642979 66.186539 54.877121 66.186539 C 54.060333 66.186539 53.371063 66.45459 52.809307 66.990692 C 52.247742 67.526794 51.966862 68.203232 51.966862 69.020218 C 51.966862 69.734955 52.273205 70.398758 52.886086 71.011444 L 60.161537 78.363678 L 52.886086 85.715904 C 52.273205 86.32859 51.966862 86.992401 51.966862 87.707138 C 51.966862 88.472992 52.247742 89.149429 52.809307 89.736656 C 53.371063 90.323875 54.060333 90.617386 54.877121 90.617386 Z M 31.059149 53.320137 C 29.118851 53.320137 27.650892 52.77121 26.655279 51.673546 C 25.659664 50.575882 25.161856 49.082458 25.161856 47.193283 L 25.161856 44.436195 C 25.161856 42.496086 25.68532 40.977005 26.732056 39.879341 C 27.778599 38.781677 29.2209 38.23275 31.059149 38.23275 L 97.458786 38.23275 C 99.45002 38.23275 100.930801 38.781677 101.900955 39.879341 C 102.870911 40.977005 103.355888 42.496086 103.355888 44.436195 L 103.355888 47.193283 C 103.355888 49.082458 102.870911 50.575882 101.900955 51.673546 C 100.930801 52.77121 99.45002 53.320137 97.458786 53.320137 Z"/>
    </g>
    <g id="Bin-geel">
        <path id="path18" fill="#ffe000" stroke="none" visibility="hidden" d="M 64.169586 125.898018 C 72.638145 125.898018 80.596497 124.291046 88.044624 121.077095 C 95.492752 117.863152 102.061066 113.399399 107.749374 107.685654 C 113.437485 101.971901 117.901237 95.390961 121.140816 87.942833 C 124.380211 80.494705 126 72.561798 126 64.144318 C 126 55.726845 124.380211 47.793938 121.140816 40.34581 C 117.901237 32.897675 113.424667 26.316742 107.710922 20.602989 C 101.997169 14.889244 95.416428 10.425491 87.968292 7.211548 C 80.520164 3.997597 72.561623 2.390625 64.093071 2.390625 C 55.675777 2.390625 47.742878 3.997597 40.294746 7.211548 C 32.846615 10.425491 26.291121 14.889244 20.62826 20.602989 C 14.965591 26.316742 10.514466 32.897675 7.275075 40.34581 C 4.035685 47.793938 2.415894 55.726845 2.415894 64.144318 C 2.415894 72.561798 4.035685 80.494705 7.275075 87.942833 C 10.514466 95.390961 14.978409 101.971901 20.666521 107.685654 C 26.354824 113.399399 32.922947 117.863152 40.371078 121.077095 C 47.81921 124.291046 55.75211 125.898018 64.169586 125.898018 Z"/>
        <path id="path19" fill="#000000" stroke="none" visibility="hidden" d="M 46.798973 99.19165 C 43.533947 99.19165 41.14912 98.349899 39.644112 96.666405 C 38.139107 94.98291 37.131687 92.457664 36.621471 89.090668 L 32.259686 58.71122 L 96.156013 58.71122 L 91.794228 89.090668 C 91.284012 92.457664 90.276596 94.98291 88.771782 96.666405 C 87.266769 98.349899 84.88176 99.19165 81.61673 99.19165 Z M 54.833839 90.544601 C 55.599064 90.544601 56.287766 90.263954 56.900139 89.70285 L 64.169586 82.433212 L 71.592468 89.70285 C 71.847481 89.906975 72.127937 90.098282 72.434219 90.276772 C 72.740112 90.455261 73.122726 90.544601 73.581863 90.544601 C 74.347092 90.544601 75.010345 90.251328 75.571449 89.664597 C 76.132553 89.07785 76.4132 88.40197 76.4132 87.636749 C 76.4132 86.922592 76.132553 86.259338 75.571449 85.647156 L 68.302002 78.300995 L 75.571449 70.954826 C 76.183823 70.342651 76.489914 69.67939 76.489914 68.96524 C 76.489914 68.148941 76.209267 67.460236 75.648163 66.899132 C 75.086868 66.338028 74.39817 66.057388 73.581863 66.057388 C 72.867714 66.057388 72.20446 66.338028 71.592468 66.899132 L 64.169586 74.2453 L 56.823425 66.899132 C 56.262325 66.388916 55.599064 66.133911 54.833839 66.133911 C 54.017727 66.133911 53.329021 66.401733 52.767731 66.937393 C 52.206627 67.473053 51.925983 68.148941 51.925983 68.96524 C 51.925983 69.67939 52.232071 70.342651 52.844444 70.954826 L 60.113895 78.300995 L 52.844444 85.647156 C 52.232071 86.259338 51.925983 86.922592 51.925983 87.636749 C 51.925983 88.40197 52.206627 89.07785 52.767731 89.664597 C 53.329021 90.251328 54.017727 90.544601 54.833839 90.544601 Z M 31.035519 53.278122 C 29.096819 53.278122 27.630074 52.729645 26.635281 51.632881 C 25.640488 50.536125 25.143091 49.043938 25.143091 47.156319 L 25.143091 44.401505 C 25.143091 42.462997 25.666122 40.945175 26.711994 39.848412 C 27.757675 38.751656 29.198786 38.203178 31.035519 38.203178 L 97.380379 38.203178 C 99.369965 38.203178 100.849525 38.751656 101.818878 39.848412 C 102.788033 40.945175 103.272614 42.462997 103.272614 44.401505 L 103.272614 47.156319 C 103.272614 49.043938 102.788033 50.536125 101.818878 51.632881 C 100.849525 52.729645 99.369965 53.278122 97.380379 53.278122 Z"/>
    </g>
    <g id="Safe-wit">
        <path id="path20" fill="#ffffff" stroke="none" visibility="hidden" d="M 12.495605 107.708282 C 12.495605 113.805519 14.04405 118.378448 17.141121 121.427071 C 20.238192 124.475693 24.859392 126 31.005083 126 L 96.114891 126 C 102.308853 126 106.94239 124.475693 110.015144 121.427071 C 113.087898 118.378448 114.624367 113.805519 114.624367 107.708282 L 114.624367 53.268646 C 114.624367 47.171402 113.087898 42.598473 110.015144 39.54985 C 106.94239 36.501236 102.308853 34.976921 96.114891 34.976921 L 68.749901 34.976921 L 68.749901 7.249001 C 68.749901 5.845726 68.229637 4.648056 67.189293 3.655983 C 66.148956 2.663918 64.926964 2.167969 63.523693 2.167969 C 62.16869 2.167969 60.97102 2.663918 59.930676 3.655983 C 58.890335 4.648056 58.370075 5.845726 58.370075 7.249001 L 58.370075 34.976921 L 31.005083 34.976921 C 24.859392 34.976921 20.238192 36.501236 17.141121 39.54985 C 14.04405 42.598473 12.495605 47.171402 12.495605 53.268646 Z M 63.523693 88.981049 C 62.894554 88.981049 62.277569 88.860008 61.672745 88.618118 C 61.067921 88.376221 60.42662 87.916389 59.74921 87.238976 L 41.021976 69.310188 C 40.005768 68.293983 39.497665 67.156738 39.497665 65.898636 C 39.497665 64.592087 39.933182 63.51545 40.804218 62.668556 C 41.675251 61.821655 42.812496 61.398293 44.215767 61.398293 C 45.667675 61.398293 46.853188 61.906403 47.772491 62.922607 L 55.974731 71.850708 L 58.805592 74.899323 L 58.370075 66.18898 L 58.370075 39.477264 C 58.370075 38.025543 58.854042 36.852005 59.821796 35.956841 C 60.789555 35.061668 62.023518 34.613991 63.523693 34.613991 C 65.072136 34.613991 66.330421 35.061668 67.298355 35.956841 C 68.266113 36.852005 68.749901 38.025543 68.749901 39.477264 L 68.749901 66.18898 L 68.31456 74.826736 L 71.145424 71.850708 L 79.347481 62.922607 C 80.218513 61.906403 81.379898 61.398293 82.831619 61.398293 C 84.186623 61.398293 85.323685 61.821655 86.243172 62.668556 C 87.162651 63.51545 87.622307 64.592087 87.622307 65.898636 C 87.622307 67.156738 87.090065 68.293983 86.025414 69.310188 L 67.298355 87.238976 C 66.669212 87.916389 66.052055 88.376221 65.447227 88.618118 C 64.8424 88.860008 64.201103 88.981049 63.523693 88.981049 Z"/>
    </g>
    <g id="Safe-geel">
        <path id="path21" fill="#ffe000" stroke="none" visibility="hidden" d="M 12.495605 107.708282 C 12.495605 113.805519 14.04405 118.378448 17.141121 121.427071 C 20.238192 124.475693 24.859392 126 31.005083 126 L 96.114891 126 C 102.308853 126 106.94239 124.475693 110.015144 121.427071 C 113.087898 118.378448 114.624367 113.805519 114.624367 107.708282 L 114.624367 53.268646 C 114.624367 47.171402 113.087898 42.598473 110.015144 39.54985 C 106.94239 36.501236 102.308853 34.976921 96.114891 34.976921 L 68.749901 34.976921 L 68.749901 7.249001 C 68.749901 5.845726 68.229637 4.648056 67.189293 3.655983 C 66.148956 2.663918 64.926964 2.167969 63.523693 2.167969 C 62.16869 2.167969 60.97102 2.663918 59.930676 3.655983 C 58.890335 4.648056 58.370075 5.845726 58.370075 7.249001 L 58.370075 34.976921 L 31.005083 34.976921 C 24.859392 34.976921 20.238192 36.501236 17.141121 39.54985 C 14.04405 42.598473 12.495605 47.171402 12.495605 53.268646 Z M 63.523693 88.981049 C 62.894554 88.981049 62.277569 88.860008 61.672745 88.618118 C 61.067921 88.376221 60.42662 87.916389 59.74921 87.238976 L 41.021976 69.310188 C 40.005768 68.293983 39.497665 67.156738 39.497665 65.898636 C 39.497665 64.592087 39.933182 63.51545 40.804218 62.668556 C 41.675251 61.821655 42.812496 61.398293 44.215767 61.398293 C 45.667675 61.398293 46.853188 61.906403 47.772491 62.922607 L 55.974731 71.850708 L 58.805592 74.899323 L 58.370075 66.18898 L 58.370075 39.477264 C 58.370075 38.025543 58.854042 36.852005 59.821796 35.956841 C 60.789555 35.061668 62.023518 34.613991 63.523693 34.613991 C 65.072136 34.613991 66.330421 35.061668 67.298355 35.956841 C 68.266113 36.852005 68.749901 38.025543 68.749901 39.477264 L 68.749901 66.18898 L 68.31456 74.826736 L 71.145424 71.850708 L 79.347481 62.922607 C 80.218513 61.906403 81.379898 61.398293 82.831619 61.398293 C 84.186623 61.398293 85.323685 61.821655 86.243172 62.668556 C 87.162651 63.51545 87.622307 64.592087 87.622307 65.898636 C 87.622307 67.156738 87.090065 68.293983 86.025414 69.310188 L 67.298355 87.238976 C 66.669212 87.916389 66.052055 88.376221 65.447227 88.618118 C 64.8424 88.860008 64.201103 88.981049 63.523693 88.981049 Z"/>
    </g>
    <g id="Safe-zwart">
        <path id="path22" fill="#000000" stroke="none" visibility="hidden" d="M 12.495605 107.708282 C 12.495605 113.805519 14.04405 118.378448 17.141121 121.427071 C 20.238192 124.475693 24.859392 126 31.005083 126 L 96.114891 126 C 102.308853 126 106.94239 124.475693 110.015144 121.427071 C 113.087898 118.378448 114.624367 113.805519 114.624367 107.708282 L 114.624367 53.268646 C 114.624367 47.171402 113.087898 42.598473 110.015144 39.54985 C 106.94239 36.501236 102.308853 34.976921 96.114891 34.976921 L 68.749901 34.976921 L 68.749901 7.249001 C 68.749901 5.845726 68.229637 4.648056 67.189293 3.655983 C 66.148956 2.663918 64.926964 2.167969 63.523693 2.167969 C 62.16869 2.167969 60.97102 2.663918 59.930676 3.655983 C 58.890335 4.648056 58.370075 5.845726 58.370075 7.249001 L 58.370075 34.976921 L 31.005083 34.976921 C 24.859392 34.976921 20.238192 36.501236 17.141121 39.54985 C 14.04405 42.598473 12.495605 47.171402 12.495605 53.268646 Z M 63.523693 88.981049 C 62.894554 88.981049 62.277569 88.860008 61.672745 88.618118 C 61.067921 88.376221 60.42662 87.916389 59.74921 87.238976 L 41.021976 69.310188 C 40.005768 68.293983 39.497665 67.156738 39.497665 65.898636 C 39.497665 64.592087 39.933182 63.51545 40.804218 62.668556 C 41.675251 61.821655 42.812496 61.398293 44.215767 61.398293 C 45.667675 61.398293 46.853188 61.906403 47.772491 62.922607 L 55.974731 71.850708 L 58.805592 74.899323 L 58.370075 66.18898 L 58.370075 39.477264 C 58.370075 38.025543 58.854042 36.852005 59.821796 35.956841 C 60.789555 35.061668 62.023518 34.613991 63.523693 34.613991 C 65.072136 34.613991 66.330421 35.061668 67.298355 35.956841 C 68.266113 36.852005 68.749901 38.025543 68.749901 39.477264 L 68.749901 66.18898 L 68.31456 74.826736 L 71.145424 71.850708 L 79.347481 62.922607 C 80.218513 61.906403 81.379898 61.398293 82.831619 61.398293 C 84.186623 61.398293 85.323685 61.821655 86.243172 62.668556 C 87.162651 63.51545 87.622307 64.592087 87.622307 65.898636 C 87.622307 67.156738 87.090065 68.293983 86.025414 69.310188 L 67.298355 87.238976 C 66.669212 87.916389 66.052055 88.376221 65.447227 88.618118 C 64.8424 88.860008 64.201103 88.981049 63.523693 88.981049 Z"/>
    </g>
    <g id="uploaden-zwart">
        <path id="path23" fill="#000000" stroke="none" visibility="hidden" d="M 32.35709 126 L 94.523933 126 C 100.43792 126 104.862022 124.544586 107.795891 121.633766 C 110.729759 118.722946 112.196777 114.356712 112.196777 108.535065 L 112.196777 56.556107 C 112.196777 50.734459 110.729759 46.368233 107.795891 43.457405 C 104.862022 40.546585 100.43792 39.091171 94.523933 39.091171 L 69.643333 39.091171 L 69.643333 78.248657 C 69.643333 79.911987 69.031197 81.344353 67.80674 82.545586 C 66.582291 83.746826 65.115448 84.347527 63.405857 84.347527 C 61.742531 84.347527 60.287121 83.746826 59.039627 82.545586 C 57.79213 81.344353 57.168381 79.911987 57.168381 78.248657 L 57.168381 39.091171 L 32.35709 39.091171 C 26.489185 39.091171 22.076866 40.546585 19.119781 43.457405 C 16.162699 46.368233 14.684244 50.734459 14.684244 56.556107 L 14.684244 108.535065 C 14.684244 114.356712 16.162699 118.722946 19.119781 121.633766 C 22.076866 124.544586 26.489185 126 32.35709 126 Z M 63.405857 44.011848 C 64.745705 44.011848 65.91246 43.526711 66.905777 42.556442 C 67.899094 41.586166 68.395836 40.454239 68.395836 39.160477 L 68.395836 24.121231 L 67.980179 15.804604 L 70.890831 18.992645 L 78.514412 27.239975 C 79.346077 28.210243 80.454956 28.695381 81.841064 28.695381 C 83.134819 28.695381 84.22049 28.291161 85.098412 27.482536 C 85.976334 26.67392 86.415215 25.64595 86.415215 24.398453 C 86.415215 23.19722 85.907028 22.111382 84.890495 21.141106 L 67.009903 4.022705 C 66.409203 3.375908 65.819931 2.936859 65.242447 2.705902 C 64.664963 2.474945 64.05265 2.359375 63.405857 2.359375 C 62.805153 2.359375 62.216061 2.474945 61.638573 2.705902 C 61.061089 2.936859 60.448776 3.375908 59.801983 4.022705 L 41.921219 21.141106 C 40.950947 22.111382 40.465809 23.19722 40.465809 24.398453 C 40.465809 25.64595 40.881641 26.67392 41.713303 27.482536 C 42.544968 28.291161 43.63081 28.695381 44.970654 28.695381 C 46.356934 28.695381 47.488861 28.210243 48.366611 27.239975 L 55.990192 18.992645 L 58.901016 15.804604 L 58.485184 24.121231 L 58.485184 39.160477 C 58.485184 40.454239 58.98193 41.586166 59.975246 42.556442 C 60.968563 43.526711 62.112103 44.011848 63.405857 44.011848 Z"/>
    </g>
    <g id="uploaden-wit">
        <path id="path24" fill="#ffffff" stroke="none" visibility="hidden" d="M 32.35709 126 L 94.523933 126 C 100.43792 126 104.862022 124.544586 107.795891 121.633766 C 110.729759 118.722946 112.196777 114.356712 112.196777 108.535065 L 112.196777 56.556107 C 112.196777 50.734459 110.729759 46.368233 107.795891 43.457405 C 104.862022 40.546585 100.43792 39.091171 94.523933 39.091171 L 69.643333 39.091171 L 69.643333 78.248657 C 69.643333 79.911987 69.031197 81.344353 67.80674 82.545586 C 66.582291 83.746826 65.115448 84.347527 63.405857 84.347527 C 61.742531 84.347527 60.287121 83.746826 59.039627 82.545586 C 57.79213 81.344353 57.168381 79.911987 57.168381 78.248657 L 57.168381 39.091171 L 32.35709 39.091171 C 26.489185 39.091171 22.076866 40.546585 19.119781 43.457405 C 16.162699 46.368233 14.684244 50.734459 14.684244 56.556107 L 14.684244 108.535065 C 14.684244 114.356712 16.162699 118.722946 19.119781 121.633766 C 22.076866 124.544586 26.489185 126 32.35709 126 Z M 63.405857 44.011848 C 64.745705 44.011848 65.91246 43.526711 66.905777 42.556442 C 67.899094 41.586166 68.395836 40.454239 68.395836 39.160477 L 68.395836 24.121231 L 67.980179 15.804604 L 70.890831 18.992645 L 78.514412 27.239975 C 79.346077 28.210243 80.454956 28.695381 81.841064 28.695381 C 83.134819 28.695381 84.22049 28.291161 85.098412 27.482536 C 85.976334 26.67392 86.415215 25.64595 86.415215 24.398453 C 86.415215 23.19722 85.907028 22.111382 84.890495 21.141106 L 67.009903 4.022705 C 66.409203 3.375908 65.819931 2.936859 65.242447 2.705902 C 64.664963 2.474945 64.05265 2.359375 63.405857 2.359375 C 62.805153 2.359375 62.216061 2.474945 61.638573 2.705902 C 61.061089 2.936859 60.448776 3.375908 59.801983 4.022705 L 41.921219 21.141106 C 40.950947 22.111382 40.465809 23.19722 40.465809 24.398453 C 40.465809 25.64595 40.881641 26.67392 41.713303 27.482536 C 42.544968 28.291161 43.63081 28.695381 44.970654 28.695381 C 46.356934 28.695381 47.488861 28.210243 48.366611 27.239975 L 55.990192 18.992645 L 58.901016 15.804604 L 58.485184 24.121231 L 58.485184 39.160477 C 58.485184 40.454239 58.98193 41.586166 59.975246 42.556442 C 60.968563 43.526711 62.112103 44.011848 63.405857 44.011848 Z"/>
    </g>
    <g id="uploaden-geel">
        <path id="path25" fill="#ffe000" stroke="none" visibility="hidden" d="M 32.35709 126 L 94.523933 126 C 100.43792 126 104.862022 124.544586 107.795891 121.633766 C 110.729759 118.722946 112.196777 114.356712 112.196777 108.535065 L 112.196777 56.556107 C 112.196777 50.734459 110.729759 46.368233 107.795891 43.457405 C 104.862022 40.546585 100.43792 39.091171 94.523933 39.091171 L 69.643333 39.091171 L 69.643333 78.248657 C 69.643333 79.911987 69.031197 81.344353 67.80674 82.545586 C 66.582291 83.746826 65.115448 84.347527 63.405857 84.347527 C 61.742531 84.347527 60.287121 83.746826 59.039627 82.545586 C 57.79213 81.344353 57.168381 79.911987 57.168381 78.248657 L 57.168381 39.091171 L 32.35709 39.091171 C 26.489185 39.091171 22.076866 40.546585 19.119781 43.457405 C 16.162699 46.368233 14.684244 50.734459 14.684244 56.556107 L 14.684244 108.535065 C 14.684244 114.356712 16.162699 118.722946 19.119781 121.633766 C 22.076866 124.544586 26.489185 126 32.35709 126 Z M 63.405857 44.011848 C 64.745705 44.011848 65.91246 43.526711 66.905777 42.556442 C 67.899094 41.586166 68.395836 40.454239 68.395836 39.160477 L 68.395836 24.121231 L 67.980179 15.804604 L 70.890831 18.992645 L 78.514412 27.239975 C 79.346077 28.210243 80.454956 28.695381 81.841064 28.695381 C 83.134819 28.695381 84.22049 28.291161 85.098412 27.482536 C 85.976334 26.67392 86.415215 25.64595 86.415215 24.398453 C 86.415215 23.19722 85.907028 22.111382 84.890495 21.141106 L 67.009903 4.022705 C 66.409203 3.375908 65.819931 2.936859 65.242447 2.705902 C 64.664963 2.474945 64.05265 2.359375 63.405857 2.359375 C 62.805153 2.359375 62.216061 2.474945 61.638573 2.705902 C 61.061089 2.936859 60.448776 3.375908 59.801983 4.022705 L 41.921219 21.141106 C 40.950947 22.111382 40.465809 23.19722 40.465809 24.398453 C 40.465809 25.64595 40.881641 26.67392 41.713303 27.482536 C 42.544968 28.291161 43.63081 28.695381 44.970654 28.695381 C 46.356934 28.695381 47.488861 28.210243 48.366611 27.239975 L 55.990192 18.992645 L 58.901016 15.804604 L 58.485184 24.121231 L 58.485184 39.160477 C 58.485184 40.454239 58.98193 41.586166 59.975246 42.556442 C 60.968563 43.526711 62.112103 44.011848 63.405857 44.011848 Z"/>
    </g>
    <g id="globe-zwart">
        <path id="path26" fill="#000000" stroke="none" visibility="hidden" d="M 64.169586 121.946541 C 68.454849 121.946541 72.459465 120.479797 76.183632 117.546494 C 79.907791 114.61319 83.159996 110.53186 85.940254 105.302887 C 88.720703 100.073906 90.901596 93.952103 92.482933 86.937469 C 94.064461 79.922844 94.855133 72.359924 94.855133 64.248535 C 94.855133 56.086067 94.077278 48.484894 92.521385 41.444817 C 90.965302 34.404747 88.784409 28.2575 85.978516 23.002884 C 83.172623 17.748276 79.920609 13.641693 76.222084 10.682755 C 72.523369 7.723816 68.505928 6.244446 64.169586 6.244446 C 59.884518 6.244446 55.879711 7.723816 52.155548 10.682755 C 48.43158 13.641693 45.179371 17.748276 42.398926 23.002884 C 39.618668 28.2575 37.450401 34.404747 35.894508 41.444817 C 34.338615 48.484894 33.56057 56.086067 33.56057 64.248535 C 33.56057 72.359924 34.338615 79.922844 35.894508 86.937469 C 37.450401 93.952103 39.631294 100.073906 42.437187 105.302887 C 45.243076 110.53186 48.495285 114.61319 52.19381 117.546494 C 55.892529 120.479797 59.884518 121.946541 64.169586 121.946541 Z M 64.169586 14.585403 C 67.026367 14.585403 69.755737 15.911728 72.357506 18.564575 C 74.959457 21.217422 77.267761 24.864868 79.282791 29.507301 C 81.297821 34.149734 82.892174 39.442413 84.065453 45.385727 C 85.238731 51.329048 85.82547 57.616524 85.82547 64.248535 C 85.82547 70.778397 85.238731 77.002365 84.065453 82.920044 C 82.892174 88.837723 81.297821 94.105148 79.282791 98.721947 C 77.267761 103.338745 74.959457 106.973564 72.357506 109.626411 C 69.755737 112.279251 67.026367 113.605583 64.169586 113.605583 C 61.363701 113.605583 58.659966 112.279251 56.058392 109.626411 C 53.456432 106.973564 51.147938 103.338745 49.132908 98.721947 C 47.117878 94.105148 45.523724 88.837723 44.350441 82.920044 C 43.176968 77.002365 42.590233 70.778397 42.590233 64.248535 C 42.590233 57.616524 43.176968 51.329048 44.350441 45.385727 C 45.523724 39.442413 47.117878 34.149734 49.132908 29.507301 C 51.147938 24.864868 53.456432 21.217422 56.058392 18.564575 C 58.659966 15.911728 61.363701 14.585403 64.169586 14.585403 Z M 59.731281 7.086197 L 59.731281 120.798698 L 68.608086 120.798698 L 68.608086 7.086197 Z M 64.169586 85.751373 C 57.996708 85.751373 52.104469 86.274216 46.492882 87.320084 C 40.88129 88.365959 35.856247 89.870773 31.41794 91.834915 C 26.979822 93.799057 23.357628 96.107361 20.551737 98.760208 L 27.362244 104.346352 C 31.290529 101.183487 36.392097 98.773026 42.666756 97.114975 C 48.941605 95.456924 56.10928 94.627991 64.169586 94.627991 C 72.280983 94.627991 79.474098 95.456924 85.749138 97.114975 C 92.023796 98.773026 97.125366 101.183487 101.053459 104.346352 L 107.863968 98.760208 C 105.058075 96.107361 101.423256 93.799057 96.959503 91.834915 C 92.49575 89.870773 87.470703 88.365959 81.88456 87.320084 C 76.298607 86.274216 70.393555 85.751373 64.169586 85.751373 Z M 119.265823 59.657188 L 9.073356 59.657188 L 9.073356 68.533798 L 119.265823 68.533798 Z M 64.169586 42.745705 C 70.393555 42.745705 76.298607 42.222862 81.88456 41.176987 C 87.470703 40.131119 92.49575 38.626305 96.959503 36.662163 C 101.423256 34.698021 105.058075 32.389717 107.863968 29.73687 L 101.053459 24.150726 C 97.125366 27.313591 92.023796 29.724052 85.749138 31.382103 C 79.474098 33.040154 72.280983 33.869087 64.169586 33.869087 C 56.10928 33.869087 48.941605 33.040154 42.666756 31.382103 C 36.392097 29.724052 31.290529 27.313591 27.362244 24.150726 L 20.551737 29.73687 C 23.357628 32.389717 26.979822 34.698021 31.41794 36.662163 C 35.856247 38.626305 40.88129 40.131119 46.492882 41.176987 C 52.104469 42.222862 57.996708 42.745705 64.169586 42.745705 Z M 64.169586 125.84919 C 72.638145 125.84919 80.596497 124.242218 88.044624 121.028267 C 95.492752 117.814323 102.061066 113.350571 107.749374 107.636826 C 113.437485 101.923073 117.901237 95.342133 121.140816 87.894005 C 124.380211 80.445877 126 72.51297 126 64.09549 C 126 55.678017 124.380211 47.74511 121.140816 40.296982 C 117.901237 32.848846 113.424667 26.267914 107.710922 20.554161 C 101.997169 14.840416 95.416428 10.376663 87.968292 7.16272 C 80.520164 3.948769 72.561623 2.341797 64.093071 2.341797 C 55.675777 2.341797 47.742878 3.948769 40.294746 7.16272 C 32.846615 10.376663 26.291121 14.840416 20.62826 20.554161 C 14.965591 26.267914 10.514466 32.848846 7.275075 40.296982 C 4.035685 47.74511 2.415894 55.678017 2.415894 64.09549 C 2.415894 72.51297 4.035685 80.445877 7.275075 87.894005 C 10.514466 95.342133 14.978409 101.923073 20.666521 107.636826 C 26.354824 113.350571 32.922947 117.814323 40.371078 121.028267 C 47.81921 124.242218 55.75211 125.84919 64.169586 125.84919 Z M 64.169586 116.666481 C 57.02755 116.666481 50.293564 115.289078 43.967636 112.534264 C 37.641708 109.779457 32.055565 105.978775 27.2092 101.132408 C 22.362835 96.286041 18.562342 90.68708 15.80753 84.335709 C 13.052527 77.984337 11.675122 71.237534 11.675122 64.09549 C 11.675122 56.953453 13.03971 50.20665 15.769078 43.855278 C 18.498446 37.503906 22.286312 31.904945 27.132677 27.058578 C 31.97904 22.212219 37.565376 18.41153 43.891304 15.656723 C 50.217236 12.901909 56.951027 11.524506 64.093071 11.524506 C 71.286377 11.524506 78.045807 12.901909 84.371735 15.656723 C 90.697472 18.41153 96.296242 22.212219 101.168243 27.058578 C 106.040237 31.904945 109.853554 37.503906 112.60836 43.855278 C 115.363365 50.20665 116.740768 56.953453 116.740768 64.09549 C 116.740768 71.237534 115.363365 77.984337 112.60836 84.335709 C 109.853554 90.68708 106.052864 96.286041 101.206505 101.132408 C 96.360138 105.978775 90.773994 109.779457 84.448067 112.534264 C 78.122139 115.289078 71.362709 116.666481 64.169586 116.666481 Z"/>
    </g>
    <g id="globe-wit">
        <path id="path27" fill="#ffffff" stroke="none" d="M 64.169586 121.946541 C 68.454849 121.946541 72.459465 120.479797 76.183632 117.546494 C 79.907791 114.61319 83.159996 110.53186 85.940254 105.302887 C 88.720703 100.073906 90.901596 93.952103 92.482933 86.937469 C 94.064461 79.922844 94.855133 72.359924 94.855133 64.248535 C 94.855133 56.086067 94.077278 48.484894 92.521385 41.444817 C 90.965302 34.404747 88.784409 28.2575 85.978516 23.002884 C 83.172623 17.748276 79.920609 13.641693 76.222084 10.682755 C 72.523369 7.723816 68.505928 6.244446 64.169586 6.244446 C 59.884518 6.244446 55.879711 7.723816 52.155548 10.682755 C 48.43158 13.641693 45.179371 17.748276 42.398926 23.002884 C 39.618668 28.2575 37.450401 34.404747 35.894508 41.444817 C 34.338615 48.484894 33.56057 56.086067 33.56057 64.248535 C 33.56057 72.359924 34.338615 79.922844 35.894508 86.937469 C 37.450401 93.952103 39.631294 100.073906 42.437187 105.302887 C 45.243076 110.53186 48.495285 114.61319 52.19381 117.546494 C 55.892529 120.479797 59.884518 121.946541 64.169586 121.946541 Z M 64.169586 14.585403 C 67.026367 14.585403 69.755737 15.911728 72.357506 18.564575 C 74.959457 21.217422 77.267761 24.864868 79.282791 29.507301 C 81.297821 34.149734 82.892174 39.442413 84.065453 45.385727 C 85.238731 51.329048 85.82547 57.616524 85.82547 64.248535 C 85.82547 70.778397 85.238731 77.002365 84.065453 82.920044 C 82.892174 88.837723 81.297821 94.105148 79.282791 98.721947 C 77.267761 103.338745 74.959457 106.973564 72.357506 109.626411 C 69.755737 112.279251 67.026367 113.605583 64.169586 113.605583 C 61.363701 113.605583 58.659966 112.279251 56.058392 109.626411 C 53.456432 106.973564 51.147938 103.338745 49.132908 98.721947 C 47.117878 94.105148 45.523724 88.837723 44.350441 82.920044 C 43.176968 77.002365 42.590233 70.778397 42.590233 64.248535 C 42.590233 57.616524 43.176968 51.329048 44.350441 45.385727 C 45.523724 39.442413 47.117878 34.149734 49.132908 29.507301 C 51.147938 24.864868 53.456432 21.217422 56.058392 18.564575 C 58.659966 15.911728 61.363701 14.585403 64.169586 14.585403 Z M 59.731281 7.086197 L 59.731281 120.798698 L 68.608086 120.798698 L 68.608086 7.086197 Z M 64.169586 85.751373 C 57.996708 85.751373 52.104469 86.274216 46.492882 87.320084 C 40.88129 88.365959 35.856247 89.870773 31.41794 91.834915 C 26.979822 93.799057 23.357628 96.107361 20.551737 98.760208 L 27.362244 104.346352 C 31.290529 101.183487 36.392097 98.773026 42.666756 97.114975 C 48.941605 95.456924 56.10928 94.627991 64.169586 94.627991 C 72.280983 94.627991 79.474098 95.456924 85.749138 97.114975 C 92.023796 98.773026 97.125366 101.183487 101.053459 104.346352 L 107.863968 98.760208 C 105.058075 96.107361 101.423256 93.799057 96.959503 91.834915 C 92.49575 89.870773 87.470703 88.365959 81.88456 87.320084 C 76.298607 86.274216 70.393555 85.751373 64.169586 85.751373 Z M 119.265823 59.657188 L 9.073356 59.657188 L 9.073356 68.533798 L 119.265823 68.533798 Z M 64.169586 42.745705 C 70.393555 42.745705 76.298607 42.222862 81.88456 41.176987 C 87.470703 40.131119 92.49575 38.626305 96.959503 36.662163 C 101.423256 34.698021 105.058075 32.389717 107.863968 29.73687 L 101.053459 24.150726 C 97.125366 27.313591 92.023796 29.724052 85.749138 31.382103 C 79.474098 33.040154 72.280983 33.869087 64.169586 33.869087 C 56.10928 33.869087 48.941605 33.040154 42.666756 31.382103 C 36.392097 29.724052 31.290529 27.313591 27.362244 24.150726 L 20.551737 29.73687 C 23.357628 32.389717 26.979822 34.698021 31.41794 36.662163 C 35.856247 38.626305 40.88129 40.131119 46.492882 41.176987 C 52.104469 42.222862 57.996708 42.745705 64.169586 42.745705 Z M 64.169586 125.84919 C 72.638145 125.84919 80.596497 124.242218 88.044624 121.028267 C 95.492752 117.814323 102.061066 113.350571 107.749374 107.636826 C 113.437485 101.923073 117.901237 95.342133 121.140816 87.894005 C 124.380211 80.445877 126 72.51297 126 64.09549 C 126 55.678017 124.380211 47.74511 121.140816 40.296982 C 117.901237 32.848846 113.424667 26.267914 107.710922 20.554161 C 101.997169 14.840416 95.416428 10.376663 87.968292 7.16272 C 80.520164 3.948769 72.561623 2.341797 64.093071 2.341797 C 55.675777 2.341797 47.742878 3.948769 40.294746 7.16272 C 32.846615 10.376663 26.291121 14.840416 20.62826 20.554161 C 14.965591 26.267914 10.514466 32.848846 7.275075 40.296982 C 4.035685 47.74511 2.415894 55.678017 2.415894 64.09549 C 2.415894 72.51297 4.035685 80.445877 7.275075 87.894005 C 10.514466 95.342133 14.978409 101.923073 20.666521 107.636826 C 26.354824 113.350571 32.922947 117.814323 40.371078 121.028267 C 47.81921 124.242218 55.75211 125.84919 64.169586 125.84919 Z M 64.169586 116.666481 C 57.02755 116.666481 50.293564 115.289078 43.967636 112.534264 C 37.641708 109.779457 32.055565 105.978775 27.2092 101.132408 C 22.362835 96.286041 18.562342 90.68708 15.80753 84.335709 C 13.052527 77.984337 11.675122 71.237534 11.675122 64.09549 C 11.675122 56.953453 13.03971 50.20665 15.769078 43.855278 C 18.498446 37.503906 22.286312 31.904945 27.132677 27.058578 C 31.97904 22.212219 37.565376 18.41153 43.891304 15.656723 C 50.217236 12.901909 56.951027 11.524506 64.093071 11.524506 C 71.286377 11.524506 78.045807 12.901909 84.371735 15.656723 C 90.697472 18.41153 96.296242 22.212219 101.168243 27.058578 C 106.040237 31.904945 109.853554 37.503906 112.60836 43.855278 C 115.363365 50.20665 116.740768 56.953453 116.740768 64.09549 C 116.740768 71.237534 115.363365 77.984337 112.60836 84.335709 C 109.853554 90.68708 106.052864 96.286041 101.206505 101.132408 C 96.360138 105.978775 90.773994 109.779457 84.448067 112.534264 C 78.122139 115.289078 71.362709 116.666481 64.169586 116.666481 Z"/>
    </g>
</svg>
