<?xml version="1.0" encoding="UTF-8"?>
<!-- Generated by Pixelmator Pro 2.4.2 -->
<svg width="128" height="128" viewBox="0 0 128 128" xmlns="http://www.w3.org/2000/svg" xmlns:xlink="http://www.w3.org/1999/xlink">
    <g id="Check">
        <g id="Regular-S">
            <path id="Path" fill="#60d838" stroke="none" visibility="hidden" d="M 64.169586 125.84919 C 72.638145 125.84919 80.596497 124.242218 88.044624 121.028267 C 95.492752 117.814323 102.061066 113.350571 107.749374 107.636826 C 113.437485 101.923073 117.901237 95.342133 121.140816 87.894005 C 124.380211 80.445877 126 72.51297 126 64.09549 C 126 55.678017 124.380211 47.74511 121.140816 40.296982 C 117.901237 32.848846 113.424667 26.267914 107.710922 20.554161 C 101.997169 14.840416 95.416428 10.376663 87.968292 7.16272 C 80.520164 3.948769 72.561623 2.341797 64.093071 2.341797 C 55.675777 2.341797 47.742878 3.948769 40.294746 7.16272 C 32.846615 10.376663 26.291121 14.840416 20.62826 20.554161 C 14.965591 26.267914 10.514466 32.848846 7.275075 40.296982 C 4.035685 47.74511 2.415894 55.678017 2.415894 64.09549 C 2.415894 72.51297 4.035685 80.445877 7.275075 87.894005 C 10.514466 95.342133 14.978409 101.923073 20.666521 107.636826 C 26.354824 113.350571 32.922947 117.814323 40.371078 121.028267 C 47.81921 124.242218 55.75211 125.84919 64.169586 125.84919 Z"/>
            <path id="path1" fill="#ffffff" stroke="none" visibility="hidden" d="M 57.435799 93.633194 C 56.262325 93.633194 55.178192 93.365372 54.18359 92.829712 C 53.188602 92.294052 52.232071 91.439484 51.313801 90.266205 L 37.080799 72.436447 C 36.009293 71.059044 35.473633 69.579674 35.473633 67.998138 C 35.473633 66.467697 35.996666 65.141365 37.042538 64.018967 C 38.088219 62.896576 39.40173 62.335472 40.983257 62.335472 C 41.952606 62.335472 42.845242 62.539597 43.661549 62.947655 C 44.477852 63.355713 45.293964 64.120941 46.110268 65.243332 L 57.129517 80.012184 L 81.540207 40.450027 C 82.815651 38.358475 84.448067 37.312599 86.437653 37.312599 C 87.917023 37.312599 89.256165 37.771736 90.455086 38.69001 C 91.653999 39.608276 92.253555 40.88372 92.253555 42.516136 C 92.253555 43.281357 92.062248 44.059402 91.679443 44.850075 C 91.296837 45.640739 90.901405 46.393341 90.493347 47.107491 L 63.174988 90.266205 C 61.79739 92.510803 59.884327 93.633194 57.435799 93.633194 Z"/>
        </g>
    </g>
    <g id="X">
        <path id="path2" fill="#ff634d" stroke="none" visibility="hidden" d="M 64.169586 125.84919 C 72.638145 125.84919 80.596497 124.242218 88.044624 121.028267 C 95.492752 117.814323 102.061066 113.350571 107.749374 107.636826 C 113.437485 101.923073 117.901237 95.342133 121.140816 87.894005 C 124.380211 80.445877 126 72.51297 126 64.09549 C 126 55.678017 124.380211 47.74511 121.140816 40.296982 C 117.901237 32.848846 113.424667 26.267914 107.710922 20.554161 C 101.997169 14.840416 95.416428 10.376663 87.968292 7.16272 C 80.520164 3.948769 72.561623 2.341797 64.093071 2.341797 C 55.675777 2.341797 47.742878 3.948769 40.294746 7.16272 C 32.846615 10.376663 26.291121 14.840416 20.62826 20.554161 C 14.965591 26.267914 10.514466 32.848846 7.275075 40.296982 C 4.035685 47.74511 2.415894 55.678017 2.415894 64.09549 C 2.415894 72.51297 4.035685 80.445877 7.275075 87.894005 C 10.514466 95.342133 14.978409 101.923073 20.666521 107.636826 C 26.354824 113.350571 32.922947 117.814323 40.371078 121.028267 C 47.81921 124.242218 55.75211 125.84919 64.169586 125.84919 Z"/>
        <path id="path3" fill="#ffffff" stroke="none" visibility="hidden" d="M 45.49828 92.791451 C 44.018906 92.791451 42.781731 92.319496 41.786743 91.375778 C 40.792141 90.432068 40.294746 89.245972 40.294746 87.817482 C 40.294746 86.542038 40.702801 85.317688 41.518917 84.144402 L 57.129517 63.024178 L 42.590233 43.434402 C 41.569996 42.056999 41.05978 40.679596 41.05978 39.302185 C 41.05978 37.873703 41.608257 36.636719 42.705013 35.590843 C 43.801968 34.544975 45.115665 34.022133 46.645927 34.022133 C 47.81921 34.022133 48.801376 34.251701 49.592236 34.710838 C 50.382904 35.169968 51.18639 35.986275 52.002697 37.159554 L 64.78196 55.371925 L 65.088051 55.371925 L 77.484512 37.236076 C 78.249931 36.062798 79.015152 35.233673 79.78038 34.7491 C 80.545418 34.264519 81.489128 34.022133 82.611526 34.022133 C 84.142166 34.022133 85.417412 34.506714 86.437653 35.476059 C 87.458076 36.445412 87.968292 37.644135 87.968292 39.072617 C 87.968292 40.348061 87.509155 41.597862 86.590889 42.822227 L 71.133141 63.406792 L 86.514175 83.83831 C 87.381363 85.011597 87.815056 86.261589 87.815056 87.587921 C 87.815056 89.118362 87.292213 90.368172 86.246346 91.337524 C 85.200661 92.30687 83.861519 92.791451 82.229103 92.791451 C 81.106705 92.791451 80.175621 92.549065 79.435837 92.064484 C 78.69606 91.57991 77.867126 90.699898 76.948853 89.424454 L 64.016739 71.365135 L 63.786976 71.365135 L 50.854668 89.424454 C 49.936398 90.699898 49.107464 91.57991 48.367683 92.064484 C 47.627903 92.549065 46.671562 92.791451 45.49828 92.791451 Z"/>
    </g>
    <g id="Boek-Geel">
        <path id="path4" fill="#ffe000" stroke="none" visibility="hidden" d="M 64.169586 125.898018 C 72.638145 125.898018 80.596497 124.291046 88.044624 121.077095 C 95.492752 117.863152 102.061066 113.399399 107.749374 107.685654 C 113.437485 101.971901 117.901237 95.390961 121.140816 87.942833 C 124.380211 80.494705 126 72.561798 126 64.144318 C 126 55.726845 124.380211 47.793938 121.140816 40.34581 C 117.901237 32.897675 113.424667 26.316742 107.710922 20.602989 C 101.997169 14.889244 95.416428 10.425491 87.968292 7.211548 C 80.520164 3.997597 72.561623 2.390625 64.093071 2.390625 C 55.675777 2.390625 47.742878 3.997597 40.294746 7.211548 C 32.846615 10.425491 26.291121 14.889244 20.62826 20.602989 C 14.965591 26.316742 10.514466 32.897675 7.275075 40.34581 C 4.035685 47.793938 2.415894 55.726845 2.415894 64.144318 C 2.415894 72.561798 4.035685 80.494705 7.275075 87.942833 C 10.514466 95.390961 14.978409 101.971901 20.666521 107.685654 C 26.354824 113.399399 32.922947 117.863152 40.371078 121.077095 C 47.81921 124.291046 55.75211 125.898018 64.169586 125.898018 Z"/>
        <path id="path5" fill="#000000" stroke="none" visibility="hidden" d="M 81.540207 37.514473 C 84.754158 37.514473 87.8405 38.228622 90.799438 39.657104 C 93.758369 41.085594 95.977715 43.100624 97.457092 45.702385 C 97.661018 45.957397 97.775803 46.238045 97.801247 46.544136 C 97.826691 46.850227 97.839508 47.28392 97.839508 47.845016 L 97.839508 88.708054 C 97.839508 90.23851 96.997765 91.003738 95.31427 91.003738 C 94.906212 91.003738 94.510971 90.940033 94.128166 90.812424 C 93.745552 90.68483 93.401207 90.493523 93.095306 90.23851 C 89.422028 87.177612 85.11132 85.647156 80.162804 85.647156 C 78.122139 85.647156 76.107109 85.978691 74.117523 86.641953 C 72.127937 87.305206 70.291397 88.325447 68.608086 89.70285 C 68.301811 90.008942 67.99572 90.161987 67.689629 90.161987 C 66.822433 90.161987 66.388741 89.753937 66.388741 88.937622 L 66.388741 45.931953 C 66.388741 45.37085 66.592865 44.784119 67.001114 44.171936 C 68.378326 42.131271 70.36792 40.511673 72.969872 39.312752 C 75.571449 38.113838 78.42823 37.514473 81.540207 37.514473 Z M 46.952015 37.514473 C 50.063995 37.514473 52.920776 38.113838 55.522732 39.312752 C 58.12431 40.511673 60.113895 42.131271 61.491302 44.171936 C 61.899548 44.784119 62.103672 45.37085 62.103672 45.931953 L 62.103672 88.937622 C 62.103672 89.753937 61.669979 90.161987 60.802597 90.161987 C 60.496506 90.161987 60.190418 90.008942 59.884518 89.70285 C 56.568413 86.999115 52.716652 85.647156 48.329422 85.647156 C 43.380901 85.647156 39.070194 87.177612 35.397305 90.23851 C 35.040134 90.493523 34.683155 90.68483 34.325989 90.812424 C 33.968819 90.940033 33.586205 91.003738 33.177959 91.003738 C 31.494461 91.003738 30.652714 90.23851 30.652714 88.708054 L 30.652714 47.845016 C 30.652714 47.28392 30.665531 46.863045 30.690975 46.582397 C 30.716419 46.30175 30.831394 46.008476 31.035519 45.702385 C 32.514889 43.100624 34.734043 41.085594 37.692787 39.657104 C 40.651722 38.228622 43.738068 37.514473 46.952015 37.514473 Z"/>
    </g>
    <g id="Boek-wit">
        <path id="path6" fill="#ffffff" stroke="none" visibility="hidden" d="M 64.169586 125.898018 C 72.638145 125.898018 80.596497 124.291046 88.044624 121.077095 C 95.492752 117.863152 102.061066 113.399399 107.749374 107.685654 C 113.437485 101.971901 117.901237 95.390961 121.140816 87.942833 C 124.380211 80.494705 126 72.561798 126 64.144318 C 126 55.726845 124.380211 47.793938 121.140816 40.34581 C 117.901237 32.897675 113.424667 26.316742 107.710922 20.602989 C 101.997169 14.889244 95.416428 10.425491 87.968292 7.211548 C 80.520164 3.997597 72.561623 2.390625 64.093071 2.390625 C 55.675777 2.390625 47.742878 3.997597 40.294746 7.211548 C 32.846615 10.425491 26.291121 14.889244 20.62826 20.602989 C 14.965591 26.316742 10.514466 32.897675 7.275075 40.34581 C 4.035685 47.793938 2.415894 55.726845 2.415894 64.144318 C 2.415894 72.561798 4.035685 80.494705 7.275075 87.942833 C 10.514466 95.390961 14.978409 101.971901 20.666521 107.685654 C 26.354824 113.399399 32.922947 117.863152 40.371078 121.077095 C 47.81921 124.291046 55.75211 125.898018 64.169586 125.898018 Z"/>
        <path id="path7" fill="#000000" stroke="none" visibility="hidden" d="M 81.540207 37.514473 C 84.754158 37.514473 87.8405 38.228622 90.799438 39.657104 C 93.758369 41.085594 95.977715 43.100624 97.457092 45.702385 C 97.661018 45.957397 97.775803 46.238045 97.801247 46.544136 C 97.826691 46.850227 97.839508 47.28392 97.839508 47.845016 L 97.839508 88.708054 C 97.839508 90.23851 96.997765 91.003738 95.31427 91.003738 C 94.906212 91.003738 94.510971 90.940033 94.128166 90.812424 C 93.745552 90.68483 93.401207 90.493523 93.095306 90.23851 C 89.422028 87.177612 85.11132 85.647156 80.162804 85.647156 C 78.122139 85.647156 76.107109 85.978691 74.117523 86.641953 C 72.127937 87.305206 70.291397 88.325447 68.608086 89.70285 C 68.301811 90.008942 67.99572 90.161987 67.689629 90.161987 C 66.822433 90.161987 66.388741 89.753937 66.388741 88.937622 L 66.388741 45.931953 C 66.388741 45.37085 66.592865 44.784119 67.001114 44.171936 C 68.378326 42.131271 70.36792 40.511673 72.969872 39.312752 C 75.571449 38.113838 78.42823 37.514473 81.540207 37.514473 Z M 46.952015 37.514473 C 50.063995 37.514473 52.920776 38.113838 55.522732 39.312752 C 58.12431 40.511673 60.113895 42.131271 61.491302 44.171936 C 61.899548 44.784119 62.103672 45.37085 62.103672 45.931953 L 62.103672 88.937622 C 62.103672 89.753937 61.669979 90.161987 60.802597 90.161987 C 60.496506 90.161987 60.190418 90.008942 59.884518 89.70285 C 56.568413 86.999115 52.716652 85.647156 48.329422 85.647156 C 43.380901 85.647156 39.070194 87.177612 35.397305 90.23851 C 35.040134 90.493523 34.683155 90.68483 34.325989 90.812424 C 33.968819 90.940033 33.586205 91.003738 33.177959 91.003738 C 31.494461 91.003738 30.652714 90.23851 30.652714 88.708054 L 30.652714 47.845016 C 30.652714 47.28392 30.665531 46.863045 30.690975 46.582397 C 30.716419 46.30175 30.831394 46.008476 31.035519 45.702385 C 32.514889 43.100624 34.734043 41.085594 37.692787 39.657104 C 40.651722 38.228622 43.738068 37.514473 46.952015 37.514473 Z"/>
    </g>
    <g id="Plus-wit">
        <path id="path8" fill="#ffffff" stroke="none" visibility="hidden" d="M 64.169586 125.84919 C 72.638145 125.84919 80.596497 124.242218 88.044624 121.028267 C 95.492752 117.814323 102.061066 113.350571 107.749374 107.636826 C 113.437485 101.923073 117.901237 95.342133 121.140816 87.894005 C 124.380211 80.445877 126 72.51297 126 64.09549 C 126 55.678017 124.380211 47.74511 121.140816 40.296982 C 117.901237 32.848846 113.424667 26.267914 107.710922 20.554161 C 101.997169 14.840416 95.416428 10.376663 87.968292 7.16272 C 80.520164 3.948769 72.561623 2.341797 64.093071 2.341797 C 55.675777 2.341797 47.742878 3.948769 40.294746 7.16272 C 32.846615 10.376663 26.291121 14.840416 20.62826 20.554161 C 14.965591 26.267914 10.514466 32.848846 7.275075 40.296982 C 4.035685 47.74511 2.415894 55.678017 2.415894 64.09549 C 2.415894 72.51297 4.035685 80.445877 7.275075 87.894005 C 10.514466 95.342133 14.978409 101.923073 20.666521 107.636826 C 26.354824 113.350571 32.922947 117.814323 40.371078 121.028267 C 47.81921 124.242218 55.75211 125.84919 64.169586 125.84919 Z"/>
        <path id="path9" fill="#ffe000" stroke="none" visibility="hidden" d="M 34.249275 64.172012 C 34.249275 62.386551 34.810566 60.932625 35.932961 59.810234 C 37.055355 58.687836 38.534729 58.126732 40.371078 58.126732 L 58.200832 58.126732 L 58.200832 40.220459 C 58.200832 38.434998 58.749306 36.981064 59.846066 35.858673 C 60.942825 34.736275 62.358494 34.175179 64.093071 34.175179 C 65.929611 34.175179 67.396355 34.736275 68.493111 35.858673 C 69.589874 36.981064 70.138351 38.434998 70.138351 40.220459 L 70.138351 58.126732 L 88.121147 58.126732 C 89.855721 58.126732 91.296837 58.687836 92.444672 59.810234 C 93.592697 60.932625 94.166618 62.386551 94.166618 64.172012 C 94.166618 65.906586 93.592697 67.322258 92.444672 68.419022 C 91.296837 69.515778 89.855721 70.064255 88.121147 70.064255 L 70.138351 70.064255 L 70.138351 87.970528 C 70.138351 89.755989 69.589874 91.209915 68.493111 92.332314 C 67.396355 93.454712 65.929611 94.015808 64.093071 94.015808 C 62.358494 94.015808 60.942825 93.454712 59.846066 92.332314 C 58.749306 91.209915 58.200832 89.755989 58.200832 87.970528 L 58.200832 70.064255 L 40.371078 70.064255 C 38.534729 70.064255 37.055355 69.515778 35.932961 68.419022 C 34.810566 67.322258 34.249275 65.906586 34.249275 64.172012 Z"/>
    </g>
    <g id="Plus-geel">
        <path id="path10" fill="#ffe000" stroke="none" visibility="hidden" d="M 64.169586 125.84919 C 72.638145 125.84919 80.596497 124.242218 88.044624 121.028267 C 95.492752 117.814323 102.061066 113.350571 107.749374 107.636826 C 113.437485 101.923073 117.901237 95.342133 121.140816 87.894005 C 124.380211 80.445877 126 72.51297 126 64.09549 C 126 55.678017 124.380211 47.74511 121.140816 40.296982 C 117.901237 32.848846 113.424667 26.267914 107.710922 20.554161 C 101.997169 14.840416 95.416428 10.376663 87.968292 7.16272 C 80.520164 3.948769 72.561623 2.341797 64.093071 2.341797 C 55.675777 2.341797 47.742878 3.948769 40.294746 7.16272 C 32.846615 10.376663 26.291121 14.840416 20.62826 20.554161 C 14.965591 26.267914 10.514466 32.848846 7.275075 40.296982 C 4.035685 47.74511 2.415894 55.678017 2.415894 64.09549 C 2.415894 72.51297 4.035685 80.445877 7.275075 87.894005 C 10.514466 95.342133 14.978409 101.923073 20.666521 107.636826 C 26.354824 113.350571 32.922947 117.814323 40.371078 121.028267 C 47.81921 124.242218 55.75211 125.84919 64.169586 125.84919 Z"/>
        <path id="path11" fill="#000000" stroke="none" visibility="hidden" d="M 34.249275 64.172012 C 34.249275 62.386551 34.810566 60.932625 35.932961 59.810234 C 37.055355 58.687836 38.534729 58.126732 40.371078 58.126732 L 58.200832 58.126732 L 58.200832 40.220459 C 58.200832 38.434998 58.749306 36.981064 59.846066 35.858673 C 60.942825 34.736275 62.358494 34.175179 64.093071 34.175179 C 65.929611 34.175179 67.396355 34.736275 68.493111 35.858673 C 69.589874 36.981064 70.138351 38.434998 70.138351 40.220459 L 70.138351 58.126732 L 88.121147 58.126732 C 89.855721 58.126732 91.296837 58.687836 92.444672 59.810234 C 93.592697 60.932625 94.166618 62.386551 94.166618 64.172012 C 94.166618 65.906586 93.592697 67.322258 92.444672 68.419022 C 91.296837 69.515778 89.855721 70.064255 88.121147 70.064255 L 70.138351 70.064255 L 70.138351 87.970528 C 70.138351 89.755989 69.589874 91.209915 68.493111 92.332314 C 67.396355 93.454712 65.929611 94.015808 64.093071 94.015808 C 62.358494 94.015808 60.942825 93.454712 59.846066 92.332314 C 58.749306 91.209915 58.200832 89.755989 58.200832 87.970528 L 58.200832 70.064255 L 40.371078 70.064255 C 38.534729 70.064255 37.055355 69.515778 35.932961 68.419022 C 34.810566 67.322258 34.249275 65.906586 34.249275 64.172012 Z"/>
    </g>
    <g id="Pen-wit">
        <path id="path12" fill="#ffffff" stroke="none" visibility="hidden" d="M 64.220581 126 C 72.696136 126 80.661049 124.391701 88.115334 121.175102 C 95.569611 117.958496 102.143349 113.491058 107.836349 107.772598 C 113.52916 102.054131 117.996597 95.467758 121.238853 88.013474 C 124.480919 80.559196 126.102043 72.619743 126.102043 64.195313 C 126.102043 55.770882 124.480919 47.831429 121.238853 40.377151 C 117.996597 32.922867 113.516327 26.336494 107.797867 20.618027 C 102.079399 14.899567 95.493217 10.432129 88.038933 7.215523 C 80.584656 3.998924 72.619545 2.390625 64.143997 2.390625 C 55.719757 2.390625 47.780304 3.998924 40.326023 7.215523 C 32.871742 10.432129 26.310835 14.899567 20.643299 20.618027 C 14.975954 26.336494 10.521153 32.922867 7.279088 40.377151 C 4.037022 47.831429 2.415894 55.770882 2.415894 64.195313 C 2.415894 72.619743 4.037022 80.559196 7.279088 88.013474 C 10.521153 95.467758 14.988782 102.054131 20.681591 107.772598 C 26.374592 113.491058 32.948135 117.958496 40.402416 121.175102 C 47.856697 124.391701 55.79615 126 64.220581 126 Z"/>
        <path id="path13" fill="#ffe000" stroke="none" visibility="hidden" d="M 44.920975 91.306664 L 36.037029 94.370087 C 35.271366 94.625313 34.569263 94.459503 33.930923 93.872284 C 33.292774 93.285065 33.152428 92.557495 33.509892 91.68959 L 36.956059 83.188576 L 76.397713 43.823509 L 84.5158 51.941597 Z M 88.498451 47.882553 L 80.456757 39.764465 L 85.43483 34.862976 C 86.507027 33.790779 87.630348 33.216385 88.804794 33.139801 C 89.979042 33.06321 91.076706 33.535553 92.097977 34.556633 L 93.782677 36.241516 C 94.752823 37.262596 95.212341 38.360458 95.161217 39.534706 C 95.110291 40.708954 94.548721 41.857742 93.476524 42.981064 Z"/>
    </g>
    <g id="Pen-geel">
        <path id="path14" fill="#ffe000" stroke="none" visibility="hidden" d="M 64.220581 126 C 72.696136 126 80.661049 124.391701 88.115334 121.175102 C 95.569611 117.958496 102.143349 113.491058 107.836349 107.772598 C 113.52916 102.054131 117.996597 95.467758 121.238853 88.013474 C 124.480919 80.559196 126.102043 72.619743 126.102043 64.195313 C 126.102043 55.770882 124.480919 47.831429 121.238853 40.377151 C 117.996597 32.922867 113.516327 26.336494 107.797867 20.618027 C 102.079399 14.899567 95.493217 10.432129 88.038933 7.215523 C 80.584656 3.998924 72.619545 2.390625 64.143997 2.390625 C 55.719757 2.390625 47.780304 3.998924 40.326023 7.215523 C 32.871742 10.432129 26.310835 14.899567 20.643299 20.618027 C 14.975954 26.336494 10.521153 32.922867 7.279088 40.377151 C 4.037022 47.831429 2.415894 55.770882 2.415894 64.195313 C 2.415894 72.619743 4.037022 80.559196 7.279088 88.013474 C 10.521153 95.467758 14.988782 102.054131 20.681591 107.772598 C 26.374592 113.491058 32.948135 117.958496 40.402416 121.175102 C 47.856697 124.391701 55.79615 126 64.220581 126 Z"/>
        <path id="path15" fill="#000000" stroke="none" visibility="hidden" d="M 44.920975 91.306664 L 36.037029 94.370087 C 35.271366 94.625313 34.569263 94.459503 33.930923 93.872284 C 33.292774 93.285065 33.152428 92.557495 33.509892 91.68959 L 36.956059 83.188576 L 76.397713 43.823509 L 84.5158 51.941597 Z M 88.498451 47.882553 L 80.456757 39.764465 L 85.43483 34.862976 C 86.507027 33.790779 87.630348 33.216385 88.804794 33.139801 C 89.979042 33.06321 91.076706 33.535553 92.097977 34.556633 L 93.782677 36.241516 C 94.752823 37.262596 95.212341 38.360458 95.161217 39.534706 C 95.110291 40.708954 94.548721 41.857742 93.476524 42.981064 Z"/>
    </g>
    <g id="Bin-geel">
        <path id="path16" fill="#ffffff" stroke="none" visibility="hidden" d="M 64.220581 126 C 72.696136 126 80.661049 124.391701 88.115334 121.175102 C 95.569611 117.958496 102.143349 113.491058 107.836349 107.772598 C 113.52916 102.054131 117.996597 95.467758 121.238853 88.013474 C 124.480919 80.559196 126.102043 72.619743 126.102043 64.195313 C 126.102043 55.770882 124.480919 47.831429 121.238853 40.377151 C 117.996597 32.922867 113.516327 26.336494 107.797867 20.618027 C 102.079399 14.899567 95.493217 10.432129 88.038933 7.215523 C 80.584656 3.998924 72.619545 2.390625 64.143997 2.390625 C 55.719757 2.390625 47.780304 3.998924 40.326023 7.215523 C 32.871742 10.432129 26.310835 14.899567 20.643299 20.618027 C 14.975954 26.336494 10.521153 32.922867 7.279088 40.377151 C 4.037022 47.831429 2.415894 55.770882 2.415894 64.195313 C 2.415894 72.619743 4.037022 80.559196 7.279088 88.013474 C 10.521153 95.467758 14.988782 102.054131 20.681591 107.772598 C 26.374592 113.491058 32.948135 117.958496 40.402416 121.175102 C 47.856697 124.391701 55.79615 126 64.220581 126 Z"/>
        <path id="path17" fill="#000000" stroke="none" visibility="hidden" d="M 46.835621 99.271576 C 43.567898 99.271576 41.181103 98.429138 39.674854 96.744247 C 38.168602 95.059364 37.160351 92.532036 36.649715 89.162262 L 32.284328 58.757729 L 96.233421 58.757729 L 91.868034 89.162262 C 91.357399 92.532036 90.349144 95.059364 88.843086 96.744247 C 87.336838 98.429138 84.949852 99.271576 81.682129 99.271576 Z M 54.877121 90.617386 C 55.642979 90.617386 56.332249 90.336517 56.945129 89.774948 L 64.220581 82.499298 L 71.64959 89.774948 C 71.904808 89.97924 72.185501 90.1707 72.492035 90.349342 C 72.79818 90.527977 73.181114 90.617386 73.640625 90.617386 C 74.406487 90.617386 75.07029 90.323875 75.631859 89.736656 C 76.19342 89.149429 76.474297 88.472992 76.474297 87.707138 C 76.474297 86.992401 76.19342 86.32859 75.631859 85.715904 L 68.3564 78.363678 L 75.631859 71.011444 C 76.244736 70.398758 76.551079 69.734955 76.551079 69.020218 C 76.551079 68.203232 76.270195 67.513962 75.708633 66.9524 C 75.146873 66.390839 74.457603 66.109955 73.640625 66.109955 C 72.925888 66.109955 72.262085 66.390839 71.64959 66.9524 L 64.220581 74.304626 L 56.868351 66.9524 C 56.306786 66.441765 55.642979 66.186539 54.877121 66.186539 C 54.060333 66.186539 53.371063 66.45459 52.809307 66.990692 C 52.247742 67.526794 51.966862 68.203232 51.966862 69.020218 C 51.966862 69.734955 52.273205 70.398758 52.886086 71.011444 L 60.161537 78.363678 L 52.886086 85.715904 C 52.273205 86.32859 51.966862 86.992401 51.966862 87.707138 C 51.966862 88.472992 52.247742 89.149429 52.809307 89.736656 C 53.371063 90.323875 54.060333 90.617386 54.877121 90.617386 Z M 31.059149 53.320137 C 29.118851 53.320137 27.650892 52.77121 26.655279 51.673546 C 25.659664 50.575882 25.161856 49.082458 25.161856 47.193283 L 25.161856 44.436195 C 25.161856 42.496086 25.68532 40.977005 26.732056 39.879341 C 27.778599 38.781677 29.2209 38.23275 31.059149 38.23275 L 97.458786 38.23275 C 99.45002 38.23275 100.930801 38.781677 101.900955 39.879341 C 102.870911 40.977005 103.355888 42.496086 103.355888 44.436195 L 103.355888 47.193283 C 103.355888 49.082458 102.870911 50.575882 101.900955 51.673546 C 100.930801 52.77121 99.45002 53.320137 97.458786 53.320137 Z"/>
    </g>
    <g id="Bin-wit">
        <path id="path18" fill="#ffe000" stroke="none" visibility="hidden" d="M 64.169586 125.898018 C 72.638145 125.898018 80.596497 124.291046 88.044624 121.077095 C 95.492752 117.863152 102.061066 113.399399 107.749374 107.685654 C 113.437485 101.971901 117.901237 95.390961 121.140816 87.942833 C 124.380211 80.494705 126 72.561798 126 64.144318 C 126 55.726845 124.380211 47.793938 121.140816 40.34581 C 117.901237 32.897675 113.424667 26.316742 107.710922 20.602989 C 101.997169 14.889244 95.416428 10.425491 87.968292 7.211548 C 80.520164 3.997597 72.561623 2.390625 64.093071 2.390625 C 55.675777 2.390625 47.742878 3.997597 40.294746 7.211548 C 32.846615 10.425491 26.291121 14.889244 20.62826 20.602989 C 14.965591 26.316742 10.514466 32.897675 7.275075 40.34581 C 4.035685 47.793938 2.415894 55.726845 2.415894 64.144318 C 2.415894 72.561798 4.035685 80.494705 7.275075 87.942833 C 10.514466 95.390961 14.978409 101.971901 20.666521 107.685654 C 26.354824 113.399399 32.922947 117.863152 40.371078 121.077095 C 47.81921 124.291046 55.75211 125.898018 64.169586 125.898018 Z"/>
        <path id="path19" fill="#000000" stroke="none" visibility="hidden" d="M 46.798973 99.19165 C 43.533947 99.19165 41.14912 98.349899 39.644112 96.666405 C 38.139107 94.98291 37.131687 92.457664 36.621471 89.090668 L 32.259686 58.71122 L 96.156013 58.71122 L 91.794228 89.090668 C 91.284012 92.457664 90.276596 94.98291 88.771782 96.666405 C 87.266769 98.349899 84.88176 99.19165 81.61673 99.19165 Z M 54.833839 90.544601 C 55.599064 90.544601 56.287766 90.263954 56.900139 89.70285 L 64.169586 82.433212 L 71.592468 89.70285 C 71.847481 89.906975 72.127937 90.098282 72.434219 90.276772 C 72.740112 90.455261 73.122726 90.544601 73.581863 90.544601 C 74.347092 90.544601 75.010345 90.251328 75.571449 89.664597 C 76.132553 89.07785 76.4132 88.40197 76.4132 87.636749 C 76.4132 86.922592 76.132553 86.259338 75.571449 85.647156 L 68.302002 78.300995 L 75.571449 70.954826 C 76.183823 70.342651 76.489914 69.67939 76.489914 68.96524 C 76.489914 68.148941 76.209267 67.460236 75.648163 66.899132 C 75.086868 66.338028 74.39817 66.057388 73.581863 66.057388 C 72.867714 66.057388 72.20446 66.338028 71.592468 66.899132 L 64.169586 74.2453 L 56.823425 66.899132 C 56.262325 66.388916 55.599064 66.133911 54.833839 66.133911 C 54.017727 66.133911 53.329021 66.401733 52.767731 66.937393 C 52.206627 67.473053 51.925983 68.148941 51.925983 68.96524 C 51.925983 69.67939 52.232071 70.342651 52.844444 70.954826 L 60.113895 78.300995 L 52.844444 85.647156 C 52.232071 86.259338 51.925983 86.922592 51.925983 87.636749 C 51.925983 88.40197 52.206627 89.07785 52.767731 89.664597 C 53.329021 90.251328 54.017727 90.544601 54.833839 90.544601 Z M 31.035519 53.278122 C 29.096819 53.278122 27.630074 52.729645 26.635281 51.632881 C 25.640488 50.536125 25.143091 49.043938 25.143091 47.156319 L 25.143091 44.401505 C 25.143091 42.462997 25.666122 40.945175 26.711994 39.848412 C 27.757675 38.751656 29.198786 38.203178 31.035519 38.203178 L 97.380379 38.203178 C 99.369965 38.203178 100.849525 38.751656 101.818878 39.848412 C 102.788033 40.945175 103.272614 42.462997 103.272614 44.401505 L 103.272614 47.156319 C 103.272614 49.043938 102.788033 50.536125 101.818878 51.632881 C 100.849525 52.729645 99.369965 53.278122 97.380379 53.278122 Z"/>
    </g>
    <g id="Mic">
        <path id="path20" fill="#000000" stroke="none" d="M 28.895752 63.660034 C 28.895752 70.033447 30.207397 75.690796 32.830566 80.631958 C 35.453735 85.572998 39.108276 89.531372 43.794189 92.506958 C 48.480103 95.482544 53.920776 97.243164 60.115967 97.788818 L 60.115967 109.147339 L 42.029175 109.147339 C 41.013916 109.147339 40.140137 109.503052 39.407837 110.2146 C 38.675537 110.926147 38.309448 111.792969 38.309448 112.815186 C 38.309448 113.87207 38.675537 114.756226 39.407837 115.467773 C 40.140137 116.179321 41.013916 116.535034 42.029175 116.535034 L 85.642456 116.535034 C 86.664673 116.535034 87.531494 116.179321 88.243042 115.467773 C 88.95459 114.756226 89.310425 113.87207 89.310425 112.815186 C 89.310425 111.792969 88.95459 110.926147 88.243042 110.2146 C 87.531494 109.503052 86.664673 109.147339 85.642456 109.147339 L 67.503784 109.147339 L 67.503784 97.788818 C 73.706055 97.243164 79.158813 95.482544 83.862061 92.506958 C 88.565186 89.531372 92.228394 85.572998 94.851563 80.631958 C 97.474731 75.690796 98.786255 70.033447 98.786255 63.660034 L 98.786255 53.777588 C 98.786255 52.720703 98.420044 51.836548 97.687744 51.125122 C 96.955444 50.413574 96.081787 50.057861 95.066528 50.057861 C 94.044189 50.057861 93.177368 50.413574 92.46582 51.125122 C 91.754272 51.836548 91.39856 52.720703 91.39856 53.777588 L 91.39856 63.349365 C 91.39856 68.873169 90.259644 73.718628 87.981812 77.885986 C 85.703979 82.053345 82.50354 85.293213 78.380615 87.605591 C 74.257568 89.917847 69.409302 91.073975 63.835815 91.073975 C 58.269287 91.073975 53.424438 89.917847 49.301514 87.605591 C 45.178467 85.293213 41.978027 82.053345 39.700317 77.885986 C 37.422485 73.718628 36.283569 68.873169 36.283569 63.349365 L 36.283569 53.777588 C 36.283569 52.720703 35.927856 51.836548 35.216309 51.125122 C 34.504761 50.413574 33.620605 50.057861 32.563843 50.057861 C 31.541504 50.057861 30.674683 50.413574 29.963135 51.125122 C 29.251587 51.836548 28.895752 52.720703 28.895752 53.777588 Z M 63.835815 80.503784 C 67.074951 80.503784 69.917847 79.761475 72.364258 78.276733 C 74.810669 76.791992 76.713867 74.722534 78.073608 72.068359 C 79.43335 69.414185 80.113281 66.34668 80.113281 62.865967 L 80.113281 30.218384 C 80.113281 26.730591 79.43335 23.659668 78.073608 21.005493 C 76.713867 18.351318 74.810669 16.281982 72.364258 14.797241 C 69.917847 13.3125 67.074951 12.570068 63.835815 12.570068 C 60.59668 12.570068 57.755615 13.3125 55.312622 14.797241 C 52.869629 16.281982 50.959595 18.351318 49.58252 21.005493 C 48.205444 23.659668 47.516846 26.730591 47.516846 30.218384 L 47.516846 62.865967 C 47.516846 66.34668 48.205444 69.414185 49.58252 72.068359 C 50.959595 74.722534 52.869629 76.791992 55.312622 78.276733 C 57.755615 79.761475 60.59668 80.503784 63.835815 80.503784 Z"/>
    </g>
    <g id="Regular-M-copy">
        <path id="path21" fill="#000000" stroke="none" visibility="hidden" d="M 9.320923 59.996704 L 9.320923 103.58728 C 9.320923 104.785522 9.58252 105.820801 10.105591 106.692993 C 10.628662 107.565186 11.34729 108.24353 12.261353 108.727905 C 13.175537 109.21228 14.207031 109.450928 15.355957 109.443848 C 16.504883 109.443848 17.524292 109.199951 18.414185 108.712036 C 19.303955 108.224243 20.006958 107.545898 20.522949 106.677124 C 21.03894 105.80835 21.296997 104.77832 21.296997 103.58728 L 21.296997 50.826782 L 18.958496 50.826782 C 16.959839 50.826782 15.244629 51.18811 13.812866 51.910767 C 12.381348 52.633423 11.27478 53.676025 10.493164 55.038452 C 9.71167 56.400757 9.320923 58.053467 9.320923 59.996704 Z M 25.849243 117.093384 L 103.046021 117.093384 C 108.158691 117.093384 111.989624 115.834106 114.53894 113.31543 C 117.088989 110.796753 118.364014 107.019043 118.364014 101.982544 L 118.364014 27.538452 C 118.364014 22.501831 117.088989 18.724121 114.53894 16.205444 C 111.989624 13.686768 108.158691 12.42749 103.046021 12.42749 L 46.193848 12.42749 C 41.088257 12.42749 37.258789 13.686768 34.705688 16.205444 C 32.152466 18.724121 30.875854 22.501831 30.875854 27.538452 L 30.875854 106.852783 C 30.875854 109.447144 30.512329 111.538086 29.785156 113.12561 C 29.057861 114.713135 27.74585 116.035767 25.849243 117.093384 Z M 50.432495 41.481201 C 49.548096 41.481201 48.808838 41.185791 48.214722 40.595093 C 47.620361 40.004272 47.323242 39.283936 47.323242 38.434204 C 47.323242 37.618896 47.620361 36.922852 48.214722 36.345825 C 48.808838 35.768799 49.548096 35.480225 50.432495 35.480225 L 98.869019 35.480225 C 99.726318 35.480225 100.44165 35.768799 101.015015 36.345825 C 101.588379 36.922852 101.875 37.618896 101.875 38.434204 C 101.875 39.283936 101.588379 40.004272 101.015015 40.595093 C 100.44165 41.185791 99.726318 41.481201 98.869019 41.481201 Z M 50.432495 58.669556 C 49.548096 58.669556 48.808838 58.391479 48.214722 57.835327 C 47.620361 57.279053 47.323242 56.57605 47.323242 55.726318 C 47.323242 54.876587 47.620361 54.15625 48.214722 53.565552 C 48.808838 52.974854 49.548096 52.679443 50.432495 52.679443 L 98.869019 52.679443 C 99.726318 52.679443 100.44165 52.974854 101.015015 53.565552 C 101.588379 54.15625 101.875 54.876587 101.875 55.726318 C 101.875 56.57605 101.588379 57.279053 101.015015 57.835327 C 100.44165 58.391479 99.726318 58.669556 98.869019 58.669556 Z M 80.704102 75.920532 C 79.812744 75.920532 79.078613 75.63208 78.501587 75.055054 C 77.924561 74.478027 77.636108 73.78186 77.636108 72.966553 C 77.636108 72.116699 77.924561 71.396362 78.501587 70.805664 C 79.078613 70.214966 79.812744 69.919556 80.704102 69.919556 L 98.859009 69.919556 C 99.715698 69.919556 100.430664 70.214966 101.004028 70.805664 C 101.578003 71.396362 101.86499 72.116699 101.86499 72.966553 C 101.86499 73.78186 101.578003 74.478027 101.004028 75.055054 C 100.430664 75.63208 99.715698 75.920532 98.859009 75.920532 Z M 80.704102 93.523193 C 79.812744 93.523193 79.078613 93.23645 78.501587 92.662842 C 77.924561 92.089355 77.636108 91.39502 77.636108 90.579834 C 77.636108 89.695435 77.924561 88.956055 78.501587 88.361816 C 79.078613 87.767578 79.812744 87.470459 80.704102 87.470459 L 98.859009 87.470459 C 99.715698 87.470459 100.430664 87.767578 101.004028 88.361816 C 101.578003 88.956055 101.86499 89.695435 101.86499 90.579834 C 101.86499 91.39502 101.578003 92.089355 101.004028 92.662842 C 100.430664 93.23645 99.715698 93.523193 98.859009 93.523193 Z M 53.062866 93.764893 C 51.243042 93.764893 49.822632 93.254395 48.801758 92.233521 C 47.780884 91.212646 47.270508 89.799438 47.270508 87.993652 L 47.270508 75.649658 C 47.270508 73.871216 47.780884 72.47168 48.801758 71.450928 C 49.822632 70.430054 51.243042 69.919556 53.062866 69.919556 L 65.224854 69.919556 C 67.03772 69.919556 68.456421 70.430054 69.480835 71.450928 C 70.505127 72.47168 71.017334 73.871216 71.017334 75.649658 L 71.017334 87.993652 C 71.017334 89.799438 70.505127 91.212646 69.480835 92.233521 C 68.456421 93.254395 67.03772 93.764893 65.224854 93.764893 Z"/>
    </g>
    <g id="Regular-M-copy-2">
        <path id="path22" fill="#000000" stroke="none" visibility="hidden" d="M 16.203857 109.789185 L 111.488037 109.789185 C 114.495361 109.789185 116.897705 108.899292 118.694946 107.119385 C 120.49231 105.339478 121.390991 102.980103 121.390991 100.041382 L 121.390991 29.604126 C 121.390991 26.672363 120.49231 24.314819 118.694946 22.531372 C 116.897705 20.748047 114.495361 19.856323 111.488037 19.856323 L 16.203857 19.856323 C 13.196167 19.856323 10.793701 20.748047 8.996582 22.531372 C 7.199463 24.314819 6.300903 26.672363 6.300903 29.604126 L 6.300903 100.041382 C 6.300903 102.980103 7.199463 105.339478 8.996582 107.119385 C 10.793701 108.899292 13.196167 109.789185 16.203857 109.789185 Z M 16.276733 101.935791 C 14.551392 101.935791 13.688721 101.090332 13.688721 99.399292 L 13.688721 93.895996 C 13.688721 93.196899 13.910278 92.625732 14.353394 92.182495 C 14.796631 91.73938 15.374756 91.517822 16.087769 91.517822 L 22.383057 91.517822 C 23.089111 91.517822 23.655151 91.73938 24.081177 92.182495 C 24.50708 92.625732 24.720093 93.196899 24.720093 93.895996 L 24.720093 99.536499 C 24.720093 101.135986 23.94104 101.935791 22.383057 101.935791 Z M 16.087769 85.775635 C 15.374756 85.775635 14.796631 85.54541 14.353394 85.084961 C 13.910278 84.624634 13.688721 84.079468 13.688721 83.449219 L 13.688721 77.88269 C 13.688721 76.283203 14.488403 75.483398 16.087769 75.483398 L 22.383057 75.483398 C 23.94104 75.483398 24.720093 76.283203 24.720093 77.88269 L 24.720093 83.449219 C 24.720093 84.079468 24.50708 84.624634 24.081177 85.084961 C 23.655151 85.54541 23.089111 85.775635 22.383057 85.775635 Z M 16.087769 69.948242 C 15.374756 69.948242 14.796631 69.726685 14.353394 69.283447 C 13.910278 68.840332 13.688721 68.303711 13.688721 67.673706 L 13.688721 62.096436 C 13.688721 60.496948 14.488403 59.697266 16.087769 59.697266 L 22.383057 59.697266 C 23.94104 59.697266 24.720093 60.496948 24.720093 62.096436 L 24.720093 67.673706 C 24.720093 68.303711 24.50708 68.840332 24.081177 69.283447 C 23.655151 69.726685 23.089111 69.948242 22.383057 69.948242 Z M 16.087769 54.276123 C 15.374756 54.276123 14.796631 54.044189 14.353394 53.5802 C 13.910278 53.116211 13.688721 52.586426 13.688721 51.990845 L 13.688721 46.372559 C 13.688721 44.773071 14.488403 43.973389 16.087769 43.973389 L 22.383057 43.973389 C 23.94104 43.973389 24.720093 44.773071 24.720093 46.372559 L 24.720093 51.990845 C 24.720093 52.586426 24.50708 53.116211 24.081177 53.5802 C 23.655151 54.044189 23.089111 54.276123 22.383057 54.276123 Z M 16.087769 38.127686 C 15.374756 38.127686 14.796631 37.906128 14.353394 37.463013 C 13.910278 37.019775 13.688721 36.483154 13.688721 35.853027 L 13.688721 30.297852 C 13.688721 28.607056 14.551392 27.761597 16.276733 27.761597 L 22.383057 27.761597 C 23.94104 27.761597 24.720093 28.561279 24.720093 30.160645 L 24.720093 35.853027 C 24.720093 36.483154 24.50708 37.019775 24.081177 37.463013 C 23.655151 37.906128 23.089111 38.127686 22.383057 38.127686 Z M 105.30896 101.935791 C 103.750977 101.935791 102.972046 101.135986 102.972046 99.536499 L 102.972046 93.895996 C 102.972046 93.196899 103.193359 92.625732 103.635986 92.182495 C 104.079346 91.73938 104.636963 91.517822 105.30896 91.517822 L 111.656006 91.517822 C 112.368652 91.517822 112.946655 91.73938 113.390015 92.182495 C 113.833374 92.625732 114.055054 93.196899 114.055054 93.895996 L 114.055054 99.399292 C 114.055054 101.090332 113.192383 101.935791 111.467041 101.935791 Z M 105.30896 85.775635 C 104.636963 85.775635 104.079346 85.54541 103.635986 85.084961 C 103.193359 84.624634 102.972046 84.079468 102.972046 83.449219 L 102.972046 77.88269 C 102.972046 76.283203 103.750977 75.483398 105.30896 75.483398 L 111.656006 75.483398 C 113.255371 75.483398 114.055054 76.283203 114.055054 77.88269 L 114.055054 83.449219 C 114.055054 84.079468 113.833374 84.624634 113.390015 85.084961 C 112.946655 85.54541 112.368652 85.775635 111.656006 85.775635 Z M 105.30896 69.948242 C 104.636963 69.948242 104.079346 69.726685 103.635986 69.283447 C 103.193359 68.840332 102.972046 68.303711 102.972046 67.673706 L 102.972046 62.096436 C 102.972046 60.496948 103.750977 59.697266 105.30896 59.697266 L 111.656006 59.697266 C 113.255371 59.697266 114.055054 60.496948 114.055054 62.096436 L 114.055054 67.673706 C 114.055054 68.303711 113.833374 68.840332 113.390015 69.283447 C 112.946655 69.726685 112.368652 69.948242 111.656006 69.948242 Z M 105.30896 54.276123 C 104.636963 54.276123 104.079346 54.044189 103.635986 53.5802 C 103.193359 53.116211 102.972046 52.586426 102.972046 51.990845 L 102.972046 46.372559 C 102.972046 44.773071 103.750977 43.973389 105.30896 43.973389 L 111.656006 43.973389 C 113.255371 43.973389 114.055054 44.773071 114.055054 46.372559 L 114.055054 51.990845 C 114.055054 52.586426 113.833374 53.116211 113.390015 53.5802 C 112.946655 54.044189 112.368652 54.276123 111.656006 54.276123 Z M 30.141113 64.822754 C 30.141113 63.800415 30.498657 62.933472 31.213623 62.222046 C 31.928589 61.510498 32.793701 61.154785 33.80896 61.154785 L 93.883057 61.154785 C 94.898315 61.154785 95.763306 61.510498 96.478027 62.222046 C 97.193359 62.933472 97.551025 63.800415 97.551025 64.822754 C 97.551025 65.845093 97.193359 66.712036 96.478027 67.423462 C 95.763306 68.13501 94.898315 68.490723 93.883057 68.490723 L 33.80896 68.490723 C 32.793701 68.490723 31.928589 68.13501 31.213623 67.423462 C 30.498657 66.712036 30.141113 65.845093 30.141113 64.822754 Z M 105.30896 38.127686 C 104.636963 38.127686 104.079346 37.906128 103.635986 37.463013 C 103.193359 37.019775 102.972046 36.483154 102.972046 35.853027 L 102.972046 30.160645 C 102.972046 28.561279 103.750977 27.761597 105.30896 27.761597 L 111.467041 27.761597 C 113.192383 27.761597 114.055054 28.607056 114.055054 30.297852 L 114.055054 35.853027 C 114.055054 36.483154 113.833374 37.019775 113.390015 37.463013 C 112.946655 37.906128 112.368652 38.127686 111.656006 38.127686 Z"/>
    </g>
</svg>
